<mxfile host="Electron" agent="Mozilla/5.0 (Windows NT 10.0; Win64; x64) AppleWebKit/537.36 (KHTML, like Gecko) draw.io/24.7.5 Chrome/126.0.6478.183 Electron/31.3.0 Safari/537.36" version="24.7.5" pages="12">
  <diagram id="Zslj2A6eSNTsKpFCIRMD" name="Module Creation">
    <mxGraphModel dx="3000" dy="1774" grid="1" gridSize="10" guides="1" tooltips="1" connect="1" arrows="1" fold="1" page="1" pageScale="1" pageWidth="850" pageHeight="1100" math="0" shadow="0">
      <root>
        <mxCell id="0" />
        <mxCell id="1" parent="0" />
        <mxCell id="NfO9jA0_9vgNByRXvvCt-1" value="&lt;div style=&quot;font-size: 15px;&quot;&gt;&lt;font style=&quot;font-size: 15px;&quot;&gt;Module Creation&lt;/font&gt;&lt;/div&gt;&lt;div style=&quot;font-size: 15px;&quot;&gt;&lt;br style=&quot;&quot;&gt;&lt;/div&gt;" style="swimlane;startSize=40;horizontal=0;html=1;whiteSpace=wrap;fontSize=14;" parent="1" vertex="1">
          <mxGeometry x="290" y="120" width="1490" height="310" as="geometry" />
        </mxCell>
        <mxCell id="NfO9jA0_9vgNByRXvvCt-2" value="Create module folder in /modules directory" style="points=[[0.25,0,0],[0.5,0,0],[0.75,0,0],[1,0.25,0],[1,0.5,0],[1,0.75,0],[0.75,1,0],[0.5,1,0],[0.25,1,0],[0,0.75,0],[0,0.5,0],[0,0.25,0]];shape=mxgraph.bpmn.task;whiteSpace=wrap;rectStyle=rounded;size=10;html=1;container=1;expand=0;collapsible=0;taskMarker=abstract;fillColor=#dae8fc;strokeColor=#6c8ebf;fontStyle=1;fontSize=15;" parent="NfO9jA0_9vgNByRXvvCt-1" vertex="1">
          <mxGeometry x="550" y="110" width="180" height="90" as="geometry" />
        </mxCell>
        <mxCell id="NfO9jA0_9vgNByRXvvCt-3" value="Register routes" style="points=[[0.25,0,0],[0.5,0,0],[0.75,0,0],[1,0.25,0],[1,0.5,0],[1,0.75,0],[0.75,1,0],[0.5,1,0],[0.25,1,0],[0,0.75,0],[0,0.5,0],[0,0.25,0]];shape=mxgraph.bpmn.task;whiteSpace=wrap;rectStyle=rounded;size=10;html=1;container=1;expand=0;collapsible=0;taskMarker=abstract;fillColor=#dae8fc;strokeColor=#6c8ebf;fontStyle=1;fontSize=15;" parent="NfO9jA0_9vgNByRXvvCt-1" vertex="1">
          <mxGeometry x="1330" y="110" width="132.5" height="90" as="geometry" />
        </mxCell>
        <mxCell id="NfO9jA0_9vgNByRXvvCt-4" value="Create database scripts from dir:&lt;div style=&quot;font-size: 15px;&quot;&gt;&amp;nbsp;/database/sql&lt;/div&gt;" style="points=[[0.25,0,0],[0.5,0,0],[0.75,0,0],[1,0.25,0],[1,0.5,0],[1,0.75,0],[0.75,1,0],[0.5,1,0],[0.25,1,0],[0,0.75,0],[0,0.5,0],[0,0.25,0]];shape=mxgraph.bpmn.task;whiteSpace=wrap;rectStyle=rounded;size=10;html=1;container=1;expand=0;collapsible=0;taskMarker=abstract;fillColor=#dae8fc;strokeColor=#6c8ebf;fontStyle=1;fontSize=15;" parent="NfO9jA0_9vgNByRXvvCt-1" vertex="1">
          <mxGeometry x="70" y="110" width="160" height="90" as="geometry" />
        </mxCell>
        <mxCell id="NfO9jA0_9vgNByRXvvCt-5" value="Add to: Init database scripts" style="points=[[0.25,0,0],[0.5,0,0],[0.75,0,0],[1,0.25,0],[1,0.5,0],[1,0.75,0],[0.75,1,0],[0.5,1,0],[0.25,1,0],[0,0.75,0],[0,0.5,0],[0,0.25,0]];shape=mxgraph.bpmn.task;whiteSpace=wrap;rectStyle=rounded;size=10;html=1;container=1;expand=0;collapsible=0;taskMarker=abstract;fillColor=#dae8fc;strokeColor=#6c8ebf;fontStyle=1;fontSize=15;" parent="NfO9jA0_9vgNByRXvvCt-1" vertex="1">
          <mxGeometry x="320" y="110" width="150" height="90" as="geometry" />
        </mxCell>
        <mxCell id="NfO9jA0_9vgNByRXvvCt-6" value="&lt;div style=&quot;font-size: 15px;&quot;&gt;Create controllers, api, services, entities and repositories and tests&lt;br style=&quot;font-size: 15px;&quot;&gt;&lt;/div&gt;" style="points=[[0.25,0,0],[0.5,0,0],[0.75,0,0],[1,0.25,0],[1,0.5,0],[1,0.75,0],[0.75,1,0],[0.5,1,0],[0.25,1,0],[0,0.75,0],[0,0.5,0],[0,0.25,0]];shape=mxgraph.bpmn.task;whiteSpace=wrap;rectStyle=rounded;size=10;html=1;container=1;expand=0;collapsible=0;taskMarker=abstract;fillColor=#dae8fc;strokeColor=#6c8ebf;fontStyle=1;fontSize=15;" parent="NfO9jA0_9vgNByRXvvCt-1" vertex="1">
          <mxGeometry x="810" y="110" width="200" height="90" as="geometry" />
        </mxCell>
        <mxCell id="NfO9jA0_9vgNByRXvvCt-8" style="edgeStyle=none;curved=1;rounded=0;orthogonalLoop=1;jettySize=auto;html=1;exitX=0.25;exitY=0;exitDx=0;exitDy=0;exitPerimeter=0;fontSize=15;startSize=8;endSize=8;fillColor=#dae8fc;strokeColor=#6c8ebf;fontStyle=1" parent="NfO9jA0_9vgNByRXvvCt-1" source="NfO9jA0_9vgNByRXvvCt-5" target="NfO9jA0_9vgNByRXvvCt-5" edge="1">
          <mxGeometry relative="1" as="geometry" />
        </mxCell>
        <mxCell id="NfO9jA0_9vgNByRXvvCt-9" value="" style="points=[[0.145,0.145,0],[0.5,0,0],[0.855,0.145,0],[1,0.5,0],[0.855,0.855,0],[0.5,1,0],[0.145,0.855,0],[0,0.5,0]];shape=mxgraph.bpmn.event;html=1;verticalLabelPosition=bottom;labelBackgroundColor=#ffffff;verticalAlign=top;align=center;perimeter=ellipsePerimeter;outlineConnect=0;aspect=fixed;outline=standard;symbol=general;fontStyle=1;fontSize=15;" parent="NfO9jA0_9vgNByRXvvCt-1" vertex="1">
          <mxGeometry x="135" y="40" width="30" height="30" as="geometry" />
        </mxCell>
        <mxCell id="NfO9jA0_9vgNByRXvvCt-10" style="edgeStyle=none;curved=1;rounded=0;orthogonalLoop=1;jettySize=auto;html=1;exitX=0.5;exitY=1;exitDx=0;exitDy=0;exitPerimeter=0;entryX=0.5;entryY=0;entryDx=0;entryDy=0;entryPerimeter=0;fontSize=15;startSize=8;endSize=8;fontStyle=1;strokeWidth=2;" parent="NfO9jA0_9vgNByRXvvCt-1" source="NfO9jA0_9vgNByRXvvCt-9" target="NfO9jA0_9vgNByRXvvCt-4" edge="1">
          <mxGeometry relative="1" as="geometry" />
        </mxCell>
        <mxCell id="NfO9jA0_9vgNByRXvvCt-11" style="edgeStyle=none;curved=1;rounded=0;orthogonalLoop=1;jettySize=auto;html=1;entryX=0;entryY=0.5;entryDx=0;entryDy=0;entryPerimeter=0;fontSize=15;startSize=8;endSize=8;fillColor=#dae8fc;strokeColor=#6c8ebf;fontStyle=1;strokeWidth=2;" parent="NfO9jA0_9vgNByRXvvCt-1" source="NfO9jA0_9vgNByRXvvCt-4" target="NfO9jA0_9vgNByRXvvCt-5" edge="1">
          <mxGeometry relative="1" as="geometry" />
        </mxCell>
        <mxCell id="NfO9jA0_9vgNByRXvvCt-12" style="edgeStyle=none;curved=1;rounded=0;orthogonalLoop=1;jettySize=auto;html=1;exitX=1;exitY=0.5;exitDx=0;exitDy=0;exitPerimeter=0;entryX=0;entryY=0.5;entryDx=0;entryDy=0;entryPerimeter=0;fontSize=15;startSize=8;endSize=8;fillColor=#dae8fc;strokeColor=#6c8ebf;fontStyle=1;strokeWidth=2;" parent="NfO9jA0_9vgNByRXvvCt-1" source="NfO9jA0_9vgNByRXvvCt-5" target="NfO9jA0_9vgNByRXvvCt-2" edge="1">
          <mxGeometry relative="1" as="geometry" />
        </mxCell>
        <mxCell id="NfO9jA0_9vgNByRXvvCt-13" style="edgeStyle=none;curved=1;rounded=0;orthogonalLoop=1;jettySize=auto;html=1;exitX=1;exitY=0.5;exitDx=0;exitDy=0;exitPerimeter=0;entryX=0;entryY=0.5;entryDx=0;entryDy=0;entryPerimeter=0;fontSize=15;startSize=8;endSize=8;fillColor=#dae8fc;strokeColor=#6c8ebf;fontStyle=1;strokeWidth=2;" parent="NfO9jA0_9vgNByRXvvCt-1" source="NfO9jA0_9vgNByRXvvCt-2" target="NfO9jA0_9vgNByRXvvCt-6" edge="1">
          <mxGeometry relative="1" as="geometry" />
        </mxCell>
        <mxCell id="NfO9jA0_9vgNByRXvvCt-14" style="edgeStyle=none;curved=1;rounded=0;orthogonalLoop=1;jettySize=auto;html=1;exitX=1;exitY=0.5;exitDx=0;exitDy=0;exitPerimeter=0;entryX=0;entryY=0.5;entryDx=0;entryDy=0;entryPerimeter=0;fontSize=15;startSize=8;endSize=8;fillColor=#dae8fc;strokeColor=#6c8ebf;fontStyle=1;strokeWidth=2;" parent="NfO9jA0_9vgNByRXvvCt-1" source="NfO9jA0_9vgNByRXvvCt-6" target="NfO9jA0_9vgNByRXvvCt-7" edge="1">
          <mxGeometry relative="1" as="geometry" />
        </mxCell>
        <mxCell id="NfO9jA0_9vgNByRXvvCt-16" value="" style="points=[[0.145,0.145,0],[0.5,0,0],[0.855,0.145,0],[1,0.5,0],[0.855,0.855,0],[0.5,1,0],[0.145,0.855,0],[0,0.5,0]];shape=mxgraph.bpmn.event;html=1;verticalLabelPosition=bottom;labelBackgroundColor=#ffffff;verticalAlign=top;align=center;perimeter=ellipsePerimeter;outlineConnect=0;aspect=fixed;outline=end;symbol=terminate;fontStyle=1;fontSize=15;" parent="NfO9jA0_9vgNByRXvvCt-1" vertex="1">
          <mxGeometry x="1376.25" y="260" width="40" height="40" as="geometry" />
        </mxCell>
        <mxCell id="NfO9jA0_9vgNByRXvvCt-17" style="edgeStyle=none;curved=1;rounded=0;orthogonalLoop=1;jettySize=auto;html=1;entryX=0.5;entryY=0;entryDx=0;entryDy=0;entryPerimeter=0;fontSize=15;startSize=8;endSize=8;fontStyle=1;strokeWidth=2;" parent="NfO9jA0_9vgNByRXvvCt-1" source="NfO9jA0_9vgNByRXvvCt-3" target="NfO9jA0_9vgNByRXvvCt-16" edge="1">
          <mxGeometry relative="1" as="geometry">
            <mxPoint x="1087.5" y="240" as="targetPoint" />
          </mxGeometry>
        </mxCell>
        <mxCell id="NfO9jA0_9vgNByRXvvCt-7" value="Create HTML views: /public/templates directory" style="points=[[0.25,0,0],[0.5,0,0],[0.75,0,0],[1,0.25,0],[1,0.5,0],[1,0.75,0],[0.75,1,0],[0.5,1,0],[0.25,1,0],[0,0.75,0],[0,0.5,0],[0,0.25,0]];shape=mxgraph.bpmn.task;whiteSpace=wrap;rectStyle=rounded;size=10;html=1;container=1;expand=0;collapsible=0;taskMarker=abstract;fillColor=#dae8fc;strokeColor=#6c8ebf;fontStyle=1;fontSize=15;" parent="NfO9jA0_9vgNByRXvvCt-1" vertex="1">
          <mxGeometry x="1090" y="110" width="158.7" height="90" as="geometry" />
        </mxCell>
        <mxCell id="NfO9jA0_9vgNByRXvvCt-15" style="edgeStyle=none;curved=1;rounded=0;orthogonalLoop=1;jettySize=auto;html=1;exitX=1;exitY=0.5;exitDx=0;exitDy=0;exitPerimeter=0;entryX=0;entryY=0.5;entryDx=0;entryDy=0;entryPerimeter=0;fontSize=15;startSize=8;endSize=8;fillColor=#dae8fc;strokeColor=#6c8ebf;fontStyle=1;strokeWidth=2;" parent="NfO9jA0_9vgNByRXvvCt-1" source="NfO9jA0_9vgNByRXvvCt-7" target="NfO9jA0_9vgNByRXvvCt-3" edge="1">
          <mxGeometry relative="1" as="geometry" />
        </mxCell>
        <object placeholders="1" c4Name="Module Creation" c4Type="SystemScopeBoundary" c4Application="" label="&lt;font style=&quot;font-size: 16px&quot;&gt;&lt;b&gt;&lt;div style=&quot;text-align: left&quot;&gt;%c4Name%&lt;/div&gt;&lt;/b&gt;&lt;/font&gt;&lt;div style=&quot;text-align: left&quot;&gt;&lt;/div&gt;" id="v6bpKa4Dy0FCK0CofWUM-1">
          <mxCell style="rounded=0;fontSize=11;whiteSpace=wrap;html=1;dashed=1;arcSize=20;fillColor=none;strokeColor=#666666;fontColor=#333333;labelBackgroundColor=none;align=left;verticalAlign=bottom;labelBorderColor=none;spacingTop=0;spacing=10;dashPattern=8 4;metaEdit=1;rotatable=0;perimeter=rectanglePerimeter;noLabel=0;labelPadding=0;allowArrows=0;connectable=0;expand=0;recursiveResize=0;editable=1;pointerEvents=0;absoluteArcSize=1;points=[[0.25,0,0],[0.5,0,0],[0.75,0,0],[1,0.25,0],[1,0.5,0],[1,0.75,0],[0.75,1,0],[0.5,1,0],[0.25,1,0],[0,0.75,0],[0,0.5,0],[0,0.25,0]];strokeWidth=0.4;" vertex="1" parent="1">
            <mxGeometry x="270" y="90" width="1530" height="400" as="geometry" />
          </mxCell>
        </object>
      </root>
    </mxGraphModel>
  </diagram>
  <diagram id="N3M7ioJRd7EyVWN92EZX" name="Module Structure">
    <mxGraphModel dx="1050" dy="621" grid="1" gridSize="10" guides="1" tooltips="1" connect="1" arrows="1" fold="1" page="1" pageScale="1" pageWidth="850" pageHeight="1100" math="0" shadow="0">
      <root>
        <mxCell id="0" />
        <mxCell id="1" parent="0" />
        <mxCell id="D9j0MoebW2a2y3DMvrUZ-2" value="Entities" style="html=1;dropTarget=0;whiteSpace=wrap;fillColor=#dae8fc;strokeColor=#6c8ebf;fontStyle=1;fontSize=16;" parent="1" vertex="1">
          <mxGeometry x="60" y="80" width="180" height="100" as="geometry" />
        </mxCell>
        <mxCell id="D9j0MoebW2a2y3DMvrUZ-3" value="" style="shape=module;jettyWidth=8;jettyHeight=4;fontSize=16;" parent="D9j0MoebW2a2y3DMvrUZ-2" vertex="1">
          <mxGeometry x="1" width="20" height="20" relative="1" as="geometry">
            <mxPoint x="-27" y="7" as="offset" />
          </mxGeometry>
        </mxCell>
        <mxCell id="D9j0MoebW2a2y3DMvrUZ-24" style="edgeStyle=orthogonalEdgeStyle;rounded=0;orthogonalLoop=1;jettySize=auto;html=1;exitX=-0.019;exitY=0.6;exitDx=0;exitDy=0;exitPerimeter=0;fontSize=16;" parent="1" source="D9j0MoebW2a2y3DMvrUZ-4" edge="1">
          <mxGeometry relative="1" as="geometry">
            <mxPoint x="305.5" y="300" as="sourcePoint" />
            <mxPoint x="200" y="390" as="targetPoint" />
            <Array as="points">
              <mxPoint x="200" y="301" />
            </Array>
          </mxGeometry>
        </mxCell>
        <mxCell id="D9j0MoebW2a2y3DMvrUZ-4" value="Services" style="html=1;dropTarget=0;whiteSpace=wrap;fillColor=#f8cecc;strokeColor=#b85450;fontStyle=1;fontSize=16;" parent="1" vertex="1">
          <mxGeometry x="300" y="240" width="180" height="100" as="geometry" />
        </mxCell>
        <mxCell id="D9j0MoebW2a2y3DMvrUZ-5" value="" style="shape=module;jettyWidth=8;jettyHeight=4;fontSize=16;" parent="D9j0MoebW2a2y3DMvrUZ-4" vertex="1">
          <mxGeometry x="1" width="20" height="20" relative="1" as="geometry">
            <mxPoint x="-27" y="7" as="offset" />
          </mxGeometry>
        </mxCell>
        <mxCell id="D9j0MoebW2a2y3DMvrUZ-30" style="edgeStyle=orthogonalEdgeStyle;rounded=0;orthogonalLoop=1;jettySize=auto;html=1;exitX=0;exitY=0.5;exitDx=0;exitDy=0;entryX=0.679;entryY=1.011;entryDx=0;entryDy=0;entryPerimeter=0;fontSize=16;" parent="1" source="D9j0MoebW2a2y3DMvrUZ-6" target="D9j0MoebW2a2y3DMvrUZ-4" edge="1">
          <mxGeometry relative="1" as="geometry" />
        </mxCell>
        <mxCell id="D9j0MoebW2a2y3DMvrUZ-6" value="Controllers" style="html=1;dropTarget=0;whiteSpace=wrap;fillColor=#ffe6cc;strokeColor=#d79b00;fontStyle=1;fontSize=16;" parent="1" vertex="1">
          <mxGeometry x="550" y="390" width="170" height="100" as="geometry" />
        </mxCell>
        <mxCell id="D9j0MoebW2a2y3DMvrUZ-7" value="" style="shape=module;jettyWidth=8;jettyHeight=4;fontSize=16;" parent="D9j0MoebW2a2y3DMvrUZ-6" vertex="1">
          <mxGeometry x="1" width="20" height="20" relative="1" as="geometry">
            <mxPoint x="-27" y="7" as="offset" />
          </mxGeometry>
        </mxCell>
        <mxCell id="D9j0MoebW2a2y3DMvrUZ-27" style="edgeStyle=orthogonalEdgeStyle;rounded=0;orthogonalLoop=1;jettySize=auto;html=1;fontSize=16;" parent="1" edge="1">
          <mxGeometry relative="1" as="geometry">
            <mxPoint x="160.0000000000001" y="390" as="sourcePoint" />
            <mxPoint x="160" y="180" as="targetPoint" />
          </mxGeometry>
        </mxCell>
        <mxCell id="D9j0MoebW2a2y3DMvrUZ-33" style="edgeStyle=orthogonalEdgeStyle;rounded=0;orthogonalLoop=1;jettySize=auto;html=1;entryX=0.333;entryY=1;entryDx=0;entryDy=0;entryPerimeter=0;fontSize=16;" parent="1" source="D9j0MoebW2a2y3DMvrUZ-8" target="D9j0MoebW2a2y3DMvrUZ-4" edge="1">
          <mxGeometry relative="1" as="geometry" />
        </mxCell>
        <mxCell id="D9j0MoebW2a2y3DMvrUZ-8" value="Repositories" style="html=1;dropTarget=0;whiteSpace=wrap;fillColor=#e1d5e7;strokeColor=#9673a6;fontStyle=1;fontSize=16;" parent="1" vertex="1">
          <mxGeometry x="60" y="390" width="180" height="100" as="geometry" />
        </mxCell>
        <mxCell id="D9j0MoebW2a2y3DMvrUZ-9" value="" style="shape=module;jettyWidth=8;jettyHeight=4;fontSize=16;" parent="D9j0MoebW2a2y3DMvrUZ-8" vertex="1">
          <mxGeometry x="1" width="20" height="20" relative="1" as="geometry">
            <mxPoint x="-27" y="7" as="offset" />
          </mxGeometry>
        </mxCell>
        <mxCell id="D9j0MoebW2a2y3DMvrUZ-29" style="edgeStyle=orthogonalEdgeStyle;rounded=0;orthogonalLoop=1;jettySize=auto;html=1;entryX=0.75;entryY=0;entryDx=0;entryDy=0;exitX=0;exitY=0.5;exitDx=0;exitDy=0;fontSize=16;" parent="1" source="D9j0MoebW2a2y3DMvrUZ-10" edge="1">
          <mxGeometry relative="1" as="geometry">
            <mxPoint x="535" y="135.0000000000001" as="sourcePoint" />
            <mxPoint x="390" y="240" as="targetPoint" />
          </mxGeometry>
        </mxCell>
        <mxCell id="D9j0MoebW2a2y3DMvrUZ-10" value="API&lt;span style=&quot;background-color: initial; font-size: 16px;&quot;&gt;&amp;nbsp;Controllers&lt;/span&gt;" style="html=1;dropTarget=0;whiteSpace=wrap;fillColor=#d5e8d4;strokeColor=#82b366;fontStyle=1;fontSize=16;" parent="1" vertex="1">
          <mxGeometry x="550" y="80" width="170" height="100" as="geometry" />
        </mxCell>
        <mxCell id="D9j0MoebW2a2y3DMvrUZ-11" value="" style="shape=module;jettyWidth=8;jettyHeight=4;fontSize=16;" parent="D9j0MoebW2a2y3DMvrUZ-10" vertex="1">
          <mxGeometry x="1" width="20" height="20" relative="1" as="geometry">
            <mxPoint x="-27" y="7" as="offset" />
          </mxGeometry>
        </mxCell>
        <mxCell id="D9j0MoebW2a2y3DMvrUZ-31" style="edgeStyle=orthogonalEdgeStyle;rounded=0;orthogonalLoop=1;jettySize=auto;html=1;entryX=0.5;entryY=1;entryDx=0;entryDy=0;fontSize=16;" parent="1" target="D9j0MoebW2a2y3DMvrUZ-10" edge="1">
          <mxGeometry relative="1" as="geometry">
            <mxPoint x="480" y="277" as="sourcePoint" />
            <mxPoint x="640" y="190" as="targetPoint" />
          </mxGeometry>
        </mxCell>
        <mxCell id="D9j0MoebW2a2y3DMvrUZ-32" style="edgeStyle=orthogonalEdgeStyle;rounded=0;orthogonalLoop=1;jettySize=auto;html=1;fontSize=16;" parent="1" edge="1">
          <mxGeometry relative="1" as="geometry">
            <mxPoint x="480" y="310.0000000000002" as="sourcePoint" />
            <mxPoint x="640" y="390" as="targetPoint" />
          </mxGeometry>
        </mxCell>
        <mxCell id="D9j0MoebW2a2y3DMvrUZ-36" style="edgeStyle=orthogonalEdgeStyle;rounded=0;orthogonalLoop=1;jettySize=auto;html=1;entryX=0.39;entryY=-0.01;entryDx=0;entryDy=0;entryPerimeter=0;fontSize=16;" parent="1" edge="1">
          <mxGeometry relative="1" as="geometry">
            <mxPoint x="120" y="180" as="sourcePoint" />
            <mxPoint x="120.20000000000005" y="389.9999999999999" as="targetPoint" />
          </mxGeometry>
        </mxCell>
        <object placeholders="1" c4Name="Module Structure" c4Type="SystemScopeBoundary" c4Application="Modular Software" label="&lt;font style=&quot;font-size: 16px&quot;&gt;&lt;b&gt;&lt;div style=&quot;text-align: left&quot;&gt;%c4Name%&lt;/div&gt;&lt;/b&gt;&lt;/font&gt;&lt;div style=&quot;text-align: left&quot;&gt;[%c4Application%]&lt;/div&gt;" id="bhldL5oojXdZ6af-UnQU-1">
          <mxCell style="rounded=0;fontSize=11;whiteSpace=wrap;html=1;dashed=1;arcSize=20;fillColor=none;strokeColor=#666666;fontColor=#333333;labelBackgroundColor=none;align=left;verticalAlign=bottom;labelBorderColor=none;spacingTop=0;spacing=10;dashPattern=8 4;metaEdit=1;rotatable=0;perimeter=rectanglePerimeter;noLabel=0;labelPadding=0;allowArrows=0;connectable=0;expand=0;recursiveResize=0;editable=1;pointerEvents=0;absoluteArcSize=1;points=[[0.25,0,0],[0.5,0,0],[0.75,0,0],[1,0.25,0],[1,0.5,0],[1,0.75,0],[0.75,1,0],[0.5,1,0],[0.25,1,0],[0,0.75,0],[0,0.5,0],[0,0.25,0]];strokeWidth=0.4;" parent="1" vertex="1">
            <mxGeometry x="40" y="60" width="700" height="500" as="geometry" />
          </mxCell>
        </object>
      </root>
    </mxGraphModel>
  </diagram>
  <diagram id="-jQ-jkX4-1PRMYwYVaUP" name="Dependency Between Modules">
    <mxGraphModel dx="1900" dy="621" grid="1" gridSize="10" guides="1" tooltips="1" connect="1" arrows="1" fold="1" page="1" pageScale="1" pageWidth="850" pageHeight="1100" math="0" shadow="0">
      <root>
        <mxCell id="0" />
        <mxCell id="1" parent="0" />
        <mxCell id="1krFZ9sOJNXwvg9YL98f-1" value="Configurations" style="shape=module;align=left;spacingLeft=20;align=center;verticalAlign=top;whiteSpace=wrap;html=1;fillColor=#dae8fc;strokeColor=#6c8ebf;fontStyle=1;fontSize=16;" parent="1" vertex="1">
          <mxGeometry x="-70" y="120" width="140" height="60" as="geometry" />
        </mxCell>
        <mxCell id="1krFZ9sOJNXwvg9YL98f-2" value="References" style="shape=module;align=left;spacingLeft=20;align=center;verticalAlign=top;whiteSpace=wrap;html=1;fillColor=#d5e8d4;strokeColor=#82b366;fontStyle=1;fontSize=16;" parent="1" vertex="1">
          <mxGeometry x="-70" y="420" width="140" height="60" as="geometry" />
        </mxCell>
        <mxCell id="1krFZ9sOJNXwvg9YL98f-3" value="Authentication" style="shape=module;align=left;spacingLeft=20;align=center;verticalAlign=top;whiteSpace=wrap;html=1;fillColor=#f8cecc;strokeColor=#b85450;fontStyle=1;fontSize=16;" parent="1" vertex="1">
          <mxGeometry x="140" y="250" width="140" height="60" as="geometry" />
        </mxCell>
        <mxCell id="1krFZ9sOJNXwvg9YL98f-4" value="Reports" style="shape=module;align=left;spacingLeft=20;align=center;verticalAlign=top;whiteSpace=wrap;html=1;fillColor=#f5f5f5;fontColor=#333333;strokeColor=#666666;fontStyle=1;fontSize=16;" parent="1" vertex="1">
          <mxGeometry x="140" y="420" width="140" height="60" as="geometry" />
        </mxCell>
        <mxCell id="1krFZ9sOJNXwvg9YL98f-5" value="Employees" style="shape=module;align=left;spacingLeft=20;align=center;verticalAlign=top;whiteSpace=wrap;html=1;fillColor=#dae8fc;strokeColor=#6c8ebf;fontStyle=1;fontSize=16;" parent="1" vertex="1">
          <mxGeometry x="390" y="420" width="130" height="60" as="geometry" />
        </mxCell>
        <mxCell id="1krFZ9sOJNXwvg9YL98f-6" value="Company" style="shape=module;align=left;spacingLeft=20;align=center;verticalAlign=top;whiteSpace=wrap;html=1;fillColor=#ffe6cc;strokeColor=#d79b00;fontStyle=1;fontSize=16;" parent="1" vertex="1">
          <mxGeometry x="390" y="120" width="130" height="60" as="geometry" />
        </mxCell>
        <mxCell id="1krFZ9sOJNXwvg9YL98f-10" value="Depends" style="endArrow=open;endSize=12;dashed=1;html=1;rounded=0;entryX=0.5;entryY=1;entryDx=0;entryDy=0;exitX=0.5;exitY=0;exitDx=0;exitDy=0;fontSize=16;strokeWidth=2;" parent="1" source="1krFZ9sOJNXwvg9YL98f-5" target="1krFZ9sOJNXwvg9YL98f-6" edge="1">
          <mxGeometry width="160" relative="1" as="geometry">
            <mxPoint x="430" y="287" as="sourcePoint" />
            <mxPoint x="433.82000000000005" y="220.00000000000003" as="targetPoint" />
          </mxGeometry>
        </mxCell>
        <mxCell id="1krFZ9sOJNXwvg9YL98f-12" value="Depends" style="endArrow=open;endSize=12;dashed=1;html=1;rounded=0;entryX=1;entryY=0.75;entryDx=0;entryDy=0;exitX=0.25;exitY=0;exitDx=0;exitDy=0;fontSize=16;strokeWidth=2;" parent="1" source="1krFZ9sOJNXwvg9YL98f-5" target="1krFZ9sOJNXwvg9YL98f-3" edge="1">
          <mxGeometry width="160" relative="1" as="geometry">
            <mxPoint x="380" y="280" as="sourcePoint" />
            <mxPoint x="440" y="210" as="targetPoint" />
          </mxGeometry>
        </mxCell>
        <mxCell id="1krFZ9sOJNXwvg9YL98f-13" value="Depends" style="endArrow=open;endSize=12;dashed=1;html=1;rounded=0;entryX=1;entryY=0;entryDx=0;entryDy=0;exitX=0;exitY=0.75;exitDx=10;exitDy=0;exitPerimeter=0;fontSize=16;strokeWidth=2;" parent="1" source="1krFZ9sOJNXwvg9YL98f-6" target="1krFZ9sOJNXwvg9YL98f-3" edge="1">
          <mxGeometry width="160" relative="1" as="geometry">
            <mxPoint x="450" y="307" as="sourcePoint" />
            <mxPoint x="450" y="220" as="targetPoint" />
          </mxGeometry>
        </mxCell>
        <mxCell id="1krFZ9sOJNXwvg9YL98f-15" value="Depends" style="endArrow=open;endSize=12;dashed=1;html=1;rounded=0;exitX=1.033;exitY=0.37;exitDx=0;exitDy=0;entryX=0.063;entryY=0.383;entryDx=0;entryDy=0;entryPerimeter=0;exitPerimeter=0;fontSize=16;strokeWidth=2;" parent="1" source="1krFZ9sOJNXwvg9YL98f-4" target="1krFZ9sOJNXwvg9YL98f-5" edge="1">
          <mxGeometry width="160" relative="1" as="geometry">
            <mxPoint x="410" y="420" as="sourcePoint" />
            <mxPoint x="280" y="430" as="targetPoint" />
          </mxGeometry>
        </mxCell>
        <mxCell id="1krFZ9sOJNXwvg9YL98f-18" value="Depends" style="endArrow=open;endSize=12;dashed=1;html=1;rounded=0;exitX=0.5;exitY=0;exitDx=0;exitDy=0;entryX=0.5;entryY=1;entryDx=0;entryDy=0;fontSize=16;strokeWidth=2;" parent="1" source="1krFZ9sOJNXwvg9YL98f-4" target="1krFZ9sOJNXwvg9YL98f-3" edge="1">
          <mxGeometry width="160" relative="1" as="geometry">
            <mxPoint x="140" y="350" as="sourcePoint" />
            <mxPoint x="254" y="351" as="targetPoint" />
          </mxGeometry>
        </mxCell>
        <mxCell id="fQgYQl2A2x6WqUExoaax-1" value="Depends" style="endArrow=open;endSize=12;dashed=1;html=1;rounded=0;fontSize=16;exitX=0.571;exitY=0;exitDx=0;exitDy=0;exitPerimeter=0;strokeWidth=2;" parent="1" source="1krFZ9sOJNXwvg9YL98f-2" target="1krFZ9sOJNXwvg9YL98f-3" edge="1">
          <mxGeometry x="0.0008" width="160" relative="1" as="geometry">
            <mxPoint x="30" y="400" as="sourcePoint" />
            <mxPoint x="160" y="360" as="targetPoint" />
            <mxPoint as="offset" />
          </mxGeometry>
        </mxCell>
        <mxCell id="fQgYQl2A2x6WqUExoaax-2" value="Depends" style="endArrow=open;endSize=12;dashed=1;html=1;rounded=0;exitX=0.5;exitY=1;exitDx=0;exitDy=0;fontSize=16;strokeWidth=2;" parent="1" source="1krFZ9sOJNXwvg9YL98f-1" target="1krFZ9sOJNXwvg9YL98f-3" edge="1">
          <mxGeometry width="160" relative="1" as="geometry">
            <mxPoint x="90" y="160" as="sourcePoint" />
            <mxPoint x="160" y="240" as="targetPoint" />
          </mxGeometry>
        </mxCell>
        <object placeholders="1" c4Name="Dependecy Between Modules" c4Type="SystemScopeBoundary" c4Application="Modular System" label="&lt;font style=&quot;font-size: 16px&quot;&gt;&lt;b&gt;&lt;div style=&quot;text-align: left&quot;&gt;%c4Name%&lt;/div&gt;&lt;/b&gt;&lt;/font&gt;&lt;div style=&quot;text-align: left&quot;&gt;[%c4Application%]&lt;/div&gt;" id="FinD2fZoEgQPB1tdBUhl-1">
          <mxCell style="rounded=0;fontSize=11;whiteSpace=wrap;html=1;dashed=1;arcSize=20;fillColor=none;strokeColor=#666666;fontColor=#333333;labelBackgroundColor=none;align=left;verticalAlign=bottom;labelBorderColor=none;spacingTop=0;spacing=10;dashPattern=8 4;metaEdit=1;rotatable=0;perimeter=rectanglePerimeter;noLabel=0;labelPadding=0;allowArrows=0;connectable=0;expand=0;recursiveResize=0;editable=1;pointerEvents=0;absoluteArcSize=1;points=[[0.25,0,0],[0.5,0,0],[0.75,0,0],[1,0.25,0],[1,0.5,0],[1,0.75,0],[0.75,1,0],[0.5,1,0],[0.25,1,0],[0,0.75,0],[0,0.5,0],[0,0.25,0]];strokeWidth=0.4;" parent="1" vertex="1">
            <mxGeometry x="-90" y="90" width="640" height="460" as="geometry" />
          </mxCell>
        </object>
      </root>
    </mxGraphModel>
  </diagram>
  <diagram id="VPtx3VHLTpQ9ZnGWBRXb" name="Modular Arquitecture">
    <mxGraphModel dx="1050" dy="621" grid="1" gridSize="10" guides="1" tooltips="1" connect="1" arrows="1" fold="1" page="1" pageScale="1" pageWidth="850" pageHeight="1100" math="0" shadow="0">
      <root>
        <mxCell id="0" />
        <mxCell id="1" parent="0" />
        <mxCell id="xoW7RGJFKRoYwVoStmt3-1" value="Common" style="html=1;dropTarget=0;whiteSpace=wrap;fillColor=#e1d5e7;strokeColor=#9673a6;fontSize=16;fontStyle=1;strokeWidth=2;" parent="1" vertex="1">
          <mxGeometry x="660" y="370" width="180" height="90" as="geometry" />
        </mxCell>
        <mxCell id="xoW7RGJFKRoYwVoStmt3-2" value="" style="shape=module;jettyWidth=8;jettyHeight=4;fontSize=16;fontStyle=1" parent="xoW7RGJFKRoYwVoStmt3-1" vertex="1">
          <mxGeometry x="1" width="20" height="20" relative="1" as="geometry">
            <mxPoint x="-27" y="7" as="offset" />
          </mxGeometry>
        </mxCell>
        <mxCell id="xoW7RGJFKRoYwVoStmt3-3" value="Modules" style="html=1;dropTarget=0;whiteSpace=wrap;fillColor=#b0e3e6;strokeColor=#0e8088;fontSize=16;fontStyle=1;strokeWidth=2;" parent="1" vertex="1">
          <mxGeometry x="340" y="600" width="180" height="90" as="geometry" />
        </mxCell>
        <mxCell id="xoW7RGJFKRoYwVoStmt3-4" value="" style="shape=module;jettyWidth=8;jettyHeight=4;fontSize=16;fontStyle=1" parent="xoW7RGJFKRoYwVoStmt3-3" vertex="1">
          <mxGeometry x="1" width="20" height="20" relative="1" as="geometry">
            <mxPoint x="-27" y="7" as="offset" />
          </mxGeometry>
        </mxCell>
        <mxCell id="xoW7RGJFKRoYwVoStmt3-5" value="Application" style="html=1;dropTarget=0;whiteSpace=wrap;fillColor=#f8cecc;strokeColor=#b85450;fontSize=16;fontStyle=1;strokeWidth=2;" parent="1" vertex="1">
          <mxGeometry x="340" y="370" width="180" height="90" as="geometry" />
        </mxCell>
        <mxCell id="xoW7RGJFKRoYwVoStmt3-6" value="" style="shape=module;jettyWidth=8;jettyHeight=4;fontSize=16;fontStyle=1" parent="xoW7RGJFKRoYwVoStmt3-5" vertex="1">
          <mxGeometry x="1" width="20" height="20" relative="1" as="geometry">
            <mxPoint x="-27" y="7" as="offset" />
          </mxGeometry>
        </mxCell>
        <mxCell id="xoW7RGJFKRoYwVoStmt3-7" value="Public" style="html=1;dropTarget=0;whiteSpace=wrap;fillColor=#d5e8d4;strokeColor=#82b366;fontSize=16;fontStyle=1;strokeWidth=2;" parent="1" vertex="1">
          <mxGeometry x="660" y="600" width="180" height="90" as="geometry" />
        </mxCell>
        <mxCell id="xoW7RGJFKRoYwVoStmt3-8" value="" style="shape=module;jettyWidth=8;jettyHeight=4;fontSize=16;fontStyle=1" parent="xoW7RGJFKRoYwVoStmt3-7" vertex="1">
          <mxGeometry x="1" width="20" height="20" relative="1" as="geometry">
            <mxPoint x="-27" y="7" as="offset" />
          </mxGeometry>
        </mxCell>
        <mxCell id="xoW7RGJFKRoYwVoStmt3-11" value="Logs" style="html=1;dropTarget=0;whiteSpace=wrap;fillColor=#bac8d3;strokeColor=#23445d;fontSize=16;fontStyle=1;strokeWidth=2;" parent="1" vertex="1">
          <mxGeometry x="340" y="820" width="180" height="90" as="geometry" />
        </mxCell>
        <mxCell id="xoW7RGJFKRoYwVoStmt3-12" value="" style="shape=module;jettyWidth=8;jettyHeight=4;fontSize=16;fontStyle=1" parent="xoW7RGJFKRoYwVoStmt3-11" vertex="1">
          <mxGeometry x="1" width="20" height="20" relative="1" as="geometry">
            <mxPoint x="-27" y="7" as="offset" />
          </mxGeometry>
        </mxCell>
        <mxCell id="xoW7RGJFKRoYwVoStmt3-15" value="Database" style="html=1;dropTarget=0;whiteSpace=wrap;fillColor=#ffe6cc;strokeColor=#d79b00;fontStyle=1;fontSize=16;strokeWidth=2;" parent="1" vertex="1">
          <mxGeometry x="20" y="600" width="180" height="90" as="geometry" />
        </mxCell>
        <mxCell id="xoW7RGJFKRoYwVoStmt3-16" value="" style="shape=module;jettyWidth=8;jettyHeight=4;fontSize=16;fontStyle=1" parent="xoW7RGJFKRoYwVoStmt3-15" vertex="1">
          <mxGeometry x="1" width="20" height="20" relative="1" as="geometry">
            <mxPoint x="-27" y="7" as="offset" />
          </mxGeometry>
        </mxCell>
        <mxCell id="wQrtoUaGijuhRVceNzyj-7" value="Use" style="endArrow=open;endSize=12;dashed=1;html=1;rounded=0;entryX=0;entryY=0.5;entryDx=0;entryDy=0;exitX=1;exitY=0.444;exitDx=0;exitDy=0;exitPerimeter=0;fontSize=16;fontStyle=1;strokeWidth=2;" parent="1" source="xoW7RGJFKRoYwVoStmt3-3" target="xoW7RGJFKRoYwVoStmt3-7" edge="1">
          <mxGeometry width="160" relative="1" as="geometry">
            <mxPoint x="530" y="630" as="sourcePoint" />
            <mxPoint x="510" y="490" as="targetPoint" />
          </mxGeometry>
        </mxCell>
        <mxCell id="wQrtoUaGijuhRVceNzyj-8" value="Use" style="endArrow=open;endSize=12;dashed=1;html=1;rounded=0;entryX=1;entryY=0.5;entryDx=0;entryDy=0;exitX=0;exitY=0.5;exitDx=0;exitDy=0;fontSize=16;fontStyle=1;strokeWidth=2;" parent="1" source="xoW7RGJFKRoYwVoStmt3-3" target="xoW7RGJFKRoYwVoStmt3-15" edge="1">
          <mxGeometry width="160" relative="1" as="geometry">
            <mxPoint x="330" y="660" as="sourcePoint" />
            <mxPoint x="530" y="633" as="targetPoint" />
          </mxGeometry>
        </mxCell>
        <mxCell id="wQrtoUaGijuhRVceNzyj-9" value="Use" style="endArrow=open;endSize=12;dashed=1;html=1;rounded=0;exitX=0.5;exitY=1;exitDx=0;exitDy=0;entryX=0.5;entryY=0;entryDx=0;entryDy=0;fontSize=16;fontStyle=1;strokeWidth=2;" parent="1" source="xoW7RGJFKRoYwVoStmt3-5" target="xoW7RGJFKRoYwVoStmt3-3" edge="1">
          <mxGeometry width="160" relative="1" as="geometry">
            <mxPoint x="530" y="440" as="sourcePoint" />
            <mxPoint x="450" y="590" as="targetPoint" />
          </mxGeometry>
        </mxCell>
        <mxCell id="wQrtoUaGijuhRVceNzyj-10" value="Use" style="endArrow=open;endSize=12;dashed=1;html=1;rounded=0;entryX=0.57;entryY=1.011;entryDx=0;entryDy=0;entryPerimeter=0;fontSize=16;fontStyle=1;strokeWidth=2;" parent="1" target="xoW7RGJFKRoYwVoStmt3-1" edge="1">
          <mxGeometry width="160" relative="1" as="geometry">
            <mxPoint x="530" y="610" as="sourcePoint" />
            <mxPoint x="267" y="540" as="targetPoint" />
          </mxGeometry>
        </mxCell>
        <mxCell id="wQrtoUaGijuhRVceNzyj-11" value="Use" style="endArrow=open;endSize=12;dashed=1;html=1;rounded=0;entryX=0.5;entryY=0;entryDx=0;entryDy=0;exitX=0.5;exitY=1;exitDx=0;exitDy=0;fontSize=16;fontStyle=1;strokeWidth=2;" parent="1" source="xoW7RGJFKRoYwVoStmt3-3" target="xoW7RGJFKRoYwVoStmt3-11" edge="1">
          <mxGeometry width="160" relative="1" as="geometry">
            <mxPoint x="377" y="839" as="sourcePoint" />
            <mxPoint x="180" y="740" as="targetPoint" />
          </mxGeometry>
        </mxCell>
        <mxCell id="wQrtoUaGijuhRVceNzyj-12" value="Use" style="endArrow=open;endSize=12;dashed=1;html=1;rounded=0;exitX=0;exitY=0.5;exitDx=0;exitDy=0;edgeStyle=orthogonalEdgeStyle;fontSize=16;fontStyle=1;entryX=0.5;entryY=0;entryDx=0;entryDy=0;strokeWidth=2;" parent="1" target="xoW7RGJFKRoYwVoStmt3-15" edge="1">
          <mxGeometry width="160" relative="1" as="geometry">
            <mxPoint x="340" y="410" as="sourcePoint" />
            <mxPoint x="110" y="565" as="targetPoint" />
            <Array as="points">
              <mxPoint x="111" y="411" />
              <mxPoint x="111" y="565" />
            </Array>
          </mxGeometry>
        </mxCell>
        <mxCell id="XfsGVfgvtD7mZCPHUNH--1" value="- Seeds&lt;br style=&quot;font-size: 10px;&quot;&gt;&lt;span style=&quot;background-color: initial; font-size: 10px;&quot;&gt;- Migrations&lt;/span&gt;&lt;div style=&quot;font-size: 10px;&quot;&gt;- Sql Scripts&lt;/div&gt;" style="shape=note;strokeWidth=0.5;fontSize=10;size=20;whiteSpace=wrap;html=1;fillColor=#f5f5f5;strokeColor=#666666;fontStyle=3;fontColor=#333333;" parent="1" vertex="1">
          <mxGeometry x="60" y="730" width="90" height="60" as="geometry" />
        </mxCell>
        <mxCell id="XfsGVfgvtD7mZCPHUNH--3" value="" style="endArrow=none;dashed=1;html=1;strokeWidth=0.4;rounded=0;entryX=0.444;entryY=1;entryDx=0;entryDy=0;entryPerimeter=0;fontSize=5;dashPattern=12 12;" parent="1" target="xoW7RGJFKRoYwVoStmt3-15" edge="1">
          <mxGeometry width="50" height="50" relative="1" as="geometry">
            <mxPoint x="100" y="730" as="sourcePoint" />
            <mxPoint x="150" y="680" as="targetPoint" />
          </mxGeometry>
        </mxCell>
        <mxCell id="XfsGVfgvtD7mZCPHUNH--4" value="- Static&lt;br style=&quot;font-size: 10px;&quot;&gt;&lt;span style=&quot;background-color: initial; font-size: 10px;&quot;&gt;- Templates&lt;/span&gt;&lt;div style=&quot;font-size: 10px;&quot;&gt;- Uploads&lt;/div&gt;" style="shape=note;strokeWidth=0.5;fontSize=10;size=20;whiteSpace=wrap;html=1;fillColor=#f5f5f5;strokeColor=#666666;fontStyle=3;fontColor=#333333;" parent="1" vertex="1">
          <mxGeometry x="707.5" y="730" width="92.5" height="60" as="geometry" />
        </mxCell>
        <mxCell id="XfsGVfgvtD7mZCPHUNH--5" value="- Info&lt;br style=&quot;font-size: 10px;&quot;&gt;&lt;span style=&quot;background-color: initial; font-size: 10px;&quot;&gt;- Error&lt;/span&gt;&lt;div style=&quot;font-size: 10px;&quot;&gt;- Warning&lt;/div&gt;" style="shape=note;strokeWidth=0.5;fontSize=10;size=20;whiteSpace=wrap;html=1;fillColor=#f5f5f5;strokeColor=#666666;fontStyle=3;fontColor=#333333;" parent="1" vertex="1">
          <mxGeometry x="387.5" y="950" width="92.5" height="60" as="geometry" />
        </mxCell>
        <mxCell id="XfsGVfgvtD7mZCPHUNH--6" value="- Helpers&lt;div&gt;- Configs&lt;br style=&quot;font-size: 10px;&quot;&gt;&lt;span style=&quot;background-color: initial; font-size: 10px;&quot;&gt;- Middlewares&lt;/span&gt;&lt;div style=&quot;font-size: 10px;&quot;&gt;- App Errors&lt;/div&gt;&lt;/div&gt;" style="shape=note;strokeWidth=0.5;fontSize=10;size=20;whiteSpace=wrap;html=1;fillColor=#f5f5f5;strokeColor=#666666;fontStyle=3;fontColor=#333333;" parent="1" vertex="1">
          <mxGeometry x="700" y="240" width="90" height="70" as="geometry" />
        </mxCell>
        <mxCell id="XfsGVfgvtD7mZCPHUNH--7" value="Load/Init:&amp;nbsp;&lt;br&gt;- Static files&lt;div&gt;- Middlewares&lt;br&gt;&lt;div&gt;&lt;span style=&quot;background-color: initial;&quot;&gt;- All routes&lt;/span&gt;&lt;/div&gt;&lt;/div&gt;" style="shape=note;strokeWidth=0.5;fontSize=10;size=20;whiteSpace=wrap;html=1;fillColor=#f5f5f5;strokeColor=#666666;fontStyle=3;fontColor=#333333;" parent="1" vertex="1">
          <mxGeometry x="375.5" y="240" width="109" height="70" as="geometry" />
        </mxCell>
        <mxCell id="XfsGVfgvtD7mZCPHUNH--12" value="" style="endArrow=none;dashed=1;html=1;strokeWidth=0.4;rounded=0;entryX=0.444;entryY=1;entryDx=0;entryDy=0;entryPerimeter=0;fontSize=5;dashPattern=12 12;" parent="1" edge="1">
          <mxGeometry width="50" height="50" relative="1" as="geometry">
            <mxPoint x="429.5" y="950" as="sourcePoint" />
            <mxPoint x="429.5" y="910" as="targetPoint" />
          </mxGeometry>
        </mxCell>
        <mxCell id="XfsGVfgvtD7mZCPHUNH--14" value="" style="endArrow=none;dashed=1;html=1;strokeWidth=0.4;rounded=0;entryX=0.55;entryY=1;entryDx=0;entryDy=0;entryPerimeter=0;fontSize=5;dashPattern=12 12;" parent="1" target="XfsGVfgvtD7mZCPHUNH--6" edge="1">
          <mxGeometry width="50" height="50" relative="1" as="geometry">
            <mxPoint x="750" y="370" as="sourcePoint" />
            <mxPoint x="749.5" y="320" as="targetPoint" />
          </mxGeometry>
        </mxCell>
        <mxCell id="XfsGVfgvtD7mZCPHUNH--16" value="" style="endArrow=none;dashed=1;html=1;strokeWidth=0.4;rounded=0;entryX=0.444;entryY=1;entryDx=0;entryDy=0;entryPerimeter=0;fontSize=5;dashPattern=12 12;" parent="1" edge="1">
          <mxGeometry width="50" height="50" relative="1" as="geometry">
            <mxPoint x="753.25" y="730" as="sourcePoint" />
            <mxPoint x="753.25" y="690" as="targetPoint" />
          </mxGeometry>
        </mxCell>
        <mxCell id="XfsGVfgvtD7mZCPHUNH--18" value="" style="endArrow=none;dashed=1;html=1;strokeWidth=0.4;rounded=0;entryX=0.55;entryY=1;entryDx=0;entryDy=0;entryPerimeter=0;fontSize=5;dashPattern=12 12;exitX=0.5;exitY=0;exitDx=0;exitDy=0;exitPerimeter=0;" parent="1" source="xoW7RGJFKRoYwVoStmt3-5" edge="1">
          <mxGeometry width="50" height="50" relative="1" as="geometry">
            <mxPoint x="429.5" y="360" as="sourcePoint" />
            <mxPoint x="430" y="310" as="targetPoint" />
          </mxGeometry>
        </mxCell>
        <object placeholders="1" c4Name="Arquitecture" c4Type="SystemScopeBoundary" c4Application="Modular System" label="&lt;font style=&quot;font-size: 16px&quot;&gt;&lt;b&gt;&lt;div style=&quot;text-align: left&quot;&gt;%c4Name%&lt;/div&gt;&lt;/b&gt;&lt;/font&gt;&lt;div style=&quot;text-align: left&quot;&gt;[%c4Application%]&lt;/div&gt;" id="27U2TJHm7XBq4FyYe9mV-1">
          <mxCell style="rounded=0;fontSize=11;whiteSpace=wrap;html=1;dashed=1;arcSize=20;fillColor=none;strokeColor=#666666;fontColor=#333333;labelBackgroundColor=none;align=left;verticalAlign=bottom;labelBorderColor=none;spacingTop=0;spacing=10;dashPattern=8 8;metaEdit=1;rotatable=0;perimeter=rectanglePerimeter;noLabel=0;labelPadding=0;allowArrows=0;connectable=0;expand=0;recursiveResize=0;editable=1;pointerEvents=0;absoluteArcSize=1;points=[[0.25,0,0],[0.5,0,0],[0.75,0,0],[1,0.25,0],[1,0.5,0],[1,0.75,0],[0.75,1,0],[0.5,1,0],[0.25,1,0],[0,0.75,0],[0,0.5,0],[0,0.25,0]];strokeWidth=0.4;" parent="1" vertex="1">
            <mxGeometry y="210" width="860" height="820" as="geometry" />
          </mxCell>
        </object>
      </root>
    </mxGraphModel>
  </diagram>
  <diagram id="OI616QUCJtg02u8JLruT" name="Modules - Flow">
    <mxGraphModel dx="1050" dy="621" grid="1" gridSize="10" guides="1" tooltips="1" connect="1" arrows="1" fold="1" page="1" pageScale="1" pageWidth="850" pageHeight="1100" math="0" shadow="0">
      <root>
        <mxCell id="0" />
        <mxCell id="1" parent="0" />
        <mxCell id="pidJ8UsrtMaUHDCBVCoR-1" style="edgeStyle=orthogonalEdgeStyle;rounded=0;orthogonalLoop=1;jettySize=auto;html=1;exitX=1;exitY=0.5;exitDx=0;exitDy=0;entryX=0;entryY=0.5;entryDx=0;entryDy=0;fontSize=16;" parent="1" source="pidJ8UsrtMaUHDCBVCoR-3" target="pidJ8UsrtMaUHDCBVCoR-9" edge="1">
          <mxGeometry relative="1" as="geometry" />
        </mxCell>
        <mxCell id="pidJ8UsrtMaUHDCBVCoR-2" value="Calls" style="edgeLabel;html=1;align=center;verticalAlign=middle;resizable=0;points=[];fontSize=16;" parent="pidJ8UsrtMaUHDCBVCoR-1" vertex="1" connectable="0">
          <mxGeometry x="-0.0911" y="-2" relative="1" as="geometry">
            <mxPoint x="8" y="13" as="offset" />
          </mxGeometry>
        </mxCell>
        <mxCell id="pidJ8UsrtMaUHDCBVCoR-3" value="Service" style="html=1;dropTarget=0;whiteSpace=wrap;fillColor=#e1d5e7;strokeColor=#9673a6;fontStyle=1;fontSize=16;" parent="1" vertex="1">
          <mxGeometry x="190" y="450" width="180" height="90" as="geometry" />
        </mxCell>
        <mxCell id="pidJ8UsrtMaUHDCBVCoR-4" value="" style="shape=module;jettyWidth=8;jettyHeight=4;fontSize=16;" parent="pidJ8UsrtMaUHDCBVCoR-3" vertex="1">
          <mxGeometry x="1" width="20" height="20" relative="1" as="geometry">
            <mxPoint x="-27" y="7" as="offset" />
          </mxGeometry>
        </mxCell>
        <mxCell id="pidJ8UsrtMaUHDCBVCoR-5" style="edgeStyle=orthogonalEdgeStyle;rounded=0;orthogonalLoop=1;jettySize=auto;html=1;exitX=0.5;exitY=1;exitDx=0;exitDy=0;entryX=0.5;entryY=0;entryDx=0;entryDy=0;fontSize=16;" parent="1" source="pidJ8UsrtMaUHDCBVCoR-6" target="pidJ8UsrtMaUHDCBVCoR-3" edge="1">
          <mxGeometry relative="1" as="geometry" />
        </mxCell>
        <mxCell id="pidJ8UsrtMaUHDCBVCoR-6" value="Controller" style="html=1;dropTarget=0;whiteSpace=wrap;fillColor=#d5e8d4;strokeColor=#82b366;fontStyle=1;fontSize=16;" parent="1" vertex="1">
          <mxGeometry x="190" y="270" width="180" height="90" as="geometry" />
        </mxCell>
        <mxCell id="pidJ8UsrtMaUHDCBVCoR-7" value="" style="shape=module;jettyWidth=8;jettyHeight=4;fontSize=16;" parent="pidJ8UsrtMaUHDCBVCoR-6" vertex="1">
          <mxGeometry x="1" width="20" height="20" relative="1" as="geometry">
            <mxPoint x="-27" y="7" as="offset" />
          </mxGeometry>
        </mxCell>
        <mxCell id="pidJ8UsrtMaUHDCBVCoR-8" style="edgeStyle=orthogonalEdgeStyle;rounded=0;orthogonalLoop=1;jettySize=auto;html=1;entryX=0.5;entryY=1;entryDx=0;entryDy=0;fontSize=16;" parent="1" source="pidJ8UsrtMaUHDCBVCoR-9" target="pidJ8UsrtMaUHDCBVCoR-11" edge="1">
          <mxGeometry relative="1" as="geometry">
            <mxPoint x="570" y="360" as="targetPoint" />
          </mxGeometry>
        </mxCell>
        <mxCell id="pidJ8UsrtMaUHDCBVCoR-9" value="Repository" style="html=1;dropTarget=0;whiteSpace=wrap;fillColor=#ffe6cc;strokeColor=#d79b00;fontStyle=1;fontSize=16;" parent="1" vertex="1">
          <mxGeometry x="550" y="450" width="180" height="90" as="geometry" />
        </mxCell>
        <mxCell id="pidJ8UsrtMaUHDCBVCoR-10" value="" style="shape=module;jettyWidth=8;jettyHeight=4;fontSize=16;" parent="pidJ8UsrtMaUHDCBVCoR-9" vertex="1">
          <mxGeometry x="1" width="20" height="20" relative="1" as="geometry">
            <mxPoint x="-27" y="7" as="offset" />
          </mxGeometry>
        </mxCell>
        <mxCell id="pidJ8UsrtMaUHDCBVCoR-11" value="Database" style="html=1;dropTarget=0;whiteSpace=wrap;fillColor=#dae8fc;strokeColor=#6c8ebf;fontStyle=1;fontSize=16;" parent="1" vertex="1">
          <mxGeometry x="550" y="270" width="180" height="90" as="geometry" />
        </mxCell>
        <mxCell id="pidJ8UsrtMaUHDCBVCoR-12" value="" style="shape=module;jettyWidth=8;jettyHeight=4;fontSize=16;" parent="pidJ8UsrtMaUHDCBVCoR-11" vertex="1">
          <mxGeometry x="1" width="20" height="20" relative="1" as="geometry">
            <mxPoint x="-27" y="7" as="offset" />
          </mxGeometry>
        </mxCell>
        <mxCell id="pidJ8UsrtMaUHDCBVCoR-13" style="edgeStyle=orthogonalEdgeStyle;rounded=0;orthogonalLoop=1;jettySize=auto;html=1;entryX=0.5;entryY=0;entryDx=0;entryDy=0;exitX=1;exitY=0.5;exitDx=0;exitDy=0;fontSize=16;" parent="1" source="pidJ8UsrtMaUHDCBVCoR-14" target="pidJ8UsrtMaUHDCBVCoR-11" edge="1">
          <mxGeometry relative="1" as="geometry">
            <mxPoint x="640" y="140" as="sourcePoint" />
          </mxGeometry>
        </mxCell>
        <mxCell id="pidJ8UsrtMaUHDCBVCoR-14" value="Routes Initialization" style="html=1;dropTarget=0;whiteSpace=wrap;fillColor=#f8cecc;strokeColor=#b85450;fontStyle=1;fontSize=16;" parent="1" vertex="1">
          <mxGeometry x="370" y="120" width="180" height="90" as="geometry" />
        </mxCell>
        <mxCell id="pidJ8UsrtMaUHDCBVCoR-15" value="" style="shape=module;jettyWidth=8;jettyHeight=4;fontSize=16;" parent="pidJ8UsrtMaUHDCBVCoR-14" vertex="1">
          <mxGeometry x="1" width="20" height="20" relative="1" as="geometry">
            <mxPoint x="-27" y="7" as="offset" />
          </mxGeometry>
        </mxCell>
        <mxCell id="pidJ8UsrtMaUHDCBVCoR-16" style="edgeStyle=orthogonalEdgeStyle;rounded=0;orthogonalLoop=1;jettySize=auto;html=1;entryX=0.5;entryY=0;entryDx=0;entryDy=0;exitX=0;exitY=0.5;exitDx=0;exitDy=0;fontSize=16;" parent="1" source="pidJ8UsrtMaUHDCBVCoR-14" target="pidJ8UsrtMaUHDCBVCoR-6" edge="1">
          <mxGeometry relative="1" as="geometry">
            <mxPoint x="270" y="260" as="targetPoint" />
          </mxGeometry>
        </mxCell>
        <mxCell id="pidJ8UsrtMaUHDCBVCoR-17" value="Calls" style="edgeLabel;html=1;align=center;verticalAlign=middle;resizable=0;points=[];fontSize=16;" parent="1" vertex="1" connectable="0">
          <mxGeometry x="310" y="400" as="geometry" />
        </mxCell>
        <mxCell id="pidJ8UsrtMaUHDCBVCoR-18" value="Calls" style="edgeLabel;html=1;align=center;verticalAlign=middle;resizable=0;points=[];fontSize=16;" parent="1" vertex="1" connectable="0">
          <mxGeometry x="680" y="420" as="geometry">
            <mxPoint x="-13" y="-10" as="offset" />
          </mxGeometry>
        </mxCell>
        <mxCell id="pidJ8UsrtMaUHDCBVCoR-19" value="Calls" style="edgeLabel;html=1;align=center;verticalAlign=middle;resizable=0;points=[];fontSize=16;" parent="1" vertex="1" connectable="0">
          <mxGeometry x="320" y="220" as="geometry">
            <mxPoint x="-8" y="-6" as="offset" />
          </mxGeometry>
        </mxCell>
        <mxCell id="pidJ8UsrtMaUHDCBVCoR-20" value="Calls" style="edgeLabel;html=1;align=center;verticalAlign=middle;resizable=0;points=[];fontSize=16;" parent="1" vertex="1" connectable="0">
          <mxGeometry x="660" y="210" as="geometry">
            <mxPoint x="6" y="10" as="offset" />
          </mxGeometry>
        </mxCell>
        <object placeholders="1" c4Name="Modules - Flow" c4Type="SystemScopeBoundary" c4Application="Modular Software" label="&lt;font style=&quot;font-size: 16px&quot;&gt;&lt;b&gt;&lt;div style=&quot;text-align: left&quot;&gt;%c4Name%&lt;/div&gt;&lt;/b&gt;&lt;/font&gt;&lt;div style=&quot;text-align: left&quot;&gt;[%c4Application%]&lt;/div&gt;" id="WOLBMaXvikSUNqisHV4D-1">
          <mxCell style="rounded=0;fontSize=11;whiteSpace=wrap;html=1;dashed=1;arcSize=20;fillColor=none;strokeColor=#666666;fontColor=#333333;labelBackgroundColor=none;align=left;verticalAlign=bottom;labelBorderColor=none;spacingTop=0;spacing=10;dashPattern=8 4;metaEdit=1;rotatable=0;perimeter=rectanglePerimeter;noLabel=0;labelPadding=0;allowArrows=0;connectable=0;expand=0;recursiveResize=0;editable=1;pointerEvents=0;absoluteArcSize=1;points=[[0.25,0,0],[0.5,0,0],[0.75,0,0],[1,0.25,0],[1,0.5,0],[1,0.75,0],[0.75,1,0],[0.5,1,0],[0.25,1,0],[0,0.75,0],[0,0.5,0],[0,0.25,0]];strokeWidth=0.4;" parent="1" vertex="1">
            <mxGeometry x="170" y="90" width="580" height="510" as="geometry" />
          </mxCell>
        </object>
      </root>
    </mxGraphModel>
  </diagram>
  <diagram id="Ne8nninV14OP3JvrrvOo" name="Communication">
    <mxGraphModel dx="1900" dy="621" grid="1" gridSize="10" guides="1" tooltips="1" connect="1" arrows="1" fold="1" page="1" pageScale="1" pageWidth="850" pageHeight="1100" math="0" shadow="0">
      <root>
        <mxCell id="0" />
        <mxCell id="1" parent="0" />
        <mxCell id="EbM0SBCWxvYMs7DH2SHw-2" value="" style="rounded=1;whiteSpace=wrap;html=1;fillColor=#DCF0DB;strokeColor=#82b366;" parent="1" vertex="1">
          <mxGeometry x="-180" y="240" width="380" height="470" as="geometry" />
        </mxCell>
        <mxCell id="EbM0SBCWxvYMs7DH2SHw-4" value="&lt;font style=&quot;font-size: 48px;&quot;&gt;Software&lt;/font&gt;" style="text;html=1;align=center;verticalAlign=middle;whiteSpace=wrap;rounded=0;fontSize=39;fontStyle=1" parent="1" vertex="1">
          <mxGeometry x="-40" y="270" width="80" height="30" as="geometry" />
        </mxCell>
        <mxCell id="EbM0SBCWxvYMs7DH2SHw-5" value="&lt;div style=&quot;text-align: right;&quot;&gt;&lt;b style=&quot;background-color: initial; font-size: 28px;&quot;&gt;Module A&lt;/b&gt;&lt;/div&gt;" style="shape=module;align=left;spacingLeft=20;align=center;verticalAlign=top;whiteSpace=wrap;html=1;fillColor=#bac8d3;strokeColor=#23445d;strokeWidth=2;" parent="1" vertex="1">
          <mxGeometry x="-110" y="340" width="240" height="90" as="geometry" />
        </mxCell>
        <mxCell id="EbM0SBCWxvYMs7DH2SHw-6" value="&lt;font size=&quot;1&quot; style=&quot;&quot;&gt;&lt;b style=&quot;font-size: 28px;&quot;&gt;Module B&lt;/b&gt;&lt;/font&gt;" style="shape=module;align=left;spacingLeft=20;align=center;verticalAlign=top;whiteSpace=wrap;html=1;strokeWidth=2;fillColor=#bac8d3;strokeColor=#23445d;" parent="1" vertex="1">
          <mxGeometry x="-110" y="460" width="240" height="90" as="geometry" />
        </mxCell>
        <mxCell id="EbM0SBCWxvYMs7DH2SHw-7" value="&lt;font size=&quot;1&quot; style=&quot;&quot;&gt;&lt;b style=&quot;font-size: 28px;&quot;&gt;Module N&lt;/b&gt;&lt;/font&gt;" style="shape=module;align=left;spacingLeft=20;align=center;verticalAlign=top;whiteSpace=wrap;html=1;strokeWidth=2;fillColor=#bac8d3;strokeColor=#23445d;" parent="1" vertex="1">
          <mxGeometry x="-110" y="580" width="240" height="90" as="geometry" />
        </mxCell>
        <mxCell id="EbM0SBCWxvYMs7DH2SHw-9" value="&lt;span style=&quot;font-size: 11px;&quot;&gt;Function A&lt;/span&gt;" style="text;html=1;align=center;verticalAlign=middle;whiteSpace=wrap;rounded=0;fontSize=11;fontStyle=3" parent="1" vertex="1">
          <mxGeometry x="-170" y="380" width="70" height="30" as="geometry" />
        </mxCell>
        <mxCell id="EbM0SBCWxvYMs7DH2SHw-10" value="&lt;span style=&quot;font-size: 11px;&quot;&gt;Function&amp;nbsp;&lt;/span&gt;&lt;span style=&quot;background-color: initial; font-size: 11px;&quot;&gt;B&lt;/span&gt;" style="text;html=1;align=center;verticalAlign=middle;whiteSpace=wrap;rounded=0;fontSize=11;fontStyle=3" parent="1" vertex="1">
          <mxGeometry x="-180" y="500" width="70" height="30" as="geometry" />
        </mxCell>
        <mxCell id="EbM0SBCWxvYMs7DH2SHw-14" value="" style="endArrow=classic;html=1;rounded=0;edgeStyle=orthogonalEdgeStyle;curved=1;strokeWidth=2;fillColor=#b1ddf0;strokeColor=#007FFF;" parent="1" edge="1">
          <mxGeometry width="50" height="50" relative="1" as="geometry">
            <mxPoint x="-100" y="410" as="sourcePoint" />
            <mxPoint x="-100" y="480" as="targetPoint" />
            <Array as="points">
              <mxPoint x="-172.5" y="480" />
            </Array>
          </mxGeometry>
        </mxCell>
        <mxCell id="EbM0SBCWxvYMs7DH2SHw-15" value="" style="endArrow=classic;html=1;rounded=0;edgeStyle=orthogonalEdgeStyle;curved=1;strokeWidth=2;fontStyle=1;fillColor=#1ba1e2;strokeColor=#007FFF;" parent="1" edge="1">
          <mxGeometry width="50" height="50" relative="1" as="geometry">
            <mxPoint x="-100" y="530" as="sourcePoint" />
            <mxPoint x="-100" y="600" as="targetPoint" />
            <Array as="points">
              <mxPoint x="-172.5" y="600" />
            </Array>
          </mxGeometry>
        </mxCell>
        <object placeholders="1" c4Name="" c4Type="ContainerScopeBoundary" c4Application="Connection Between Modules" label="&lt;font style=&quot;font-size: 16px&quot;&gt;&lt;span&gt;&lt;div style=&quot;text-align: center&quot;&gt;%c4Name%&lt;/div&gt;&lt;/span&gt;&lt;/font&gt;&lt;div style=&quot;text-align: left&quot;&gt;%c4Application%&lt;/div&gt;" id="4g8jARPgVzTaK4Hff-2f-4">
          <mxCell style="rounded=0;fontSize=11;whiteSpace=wrap;html=1;dashed=1;arcSize=20;fillColor=none;strokeColor=#666666;fontColor=#333333;labelBackgroundColor=none;align=left;verticalAlign=bottom;labelBorderColor=none;spacingTop=0;spacing=10;metaEdit=1;rotatable=0;perimeter=rectanglePerimeter;noLabel=0;labelPadding=0;allowArrows=0;connectable=0;expand=0;recursiveResize=0;editable=1;pointerEvents=0;absoluteArcSize=1;points=[[0.25,0,0],[0.5,0,0],[0.75,0,0],[1,0.25,0],[1,0.5,0],[1,0.75,0],[0.75,1,0],[0.5,1,0],[0.25,1,0],[0,0.75,0],[0,0.5,0],[0,0.25,0]];fontStyle=3;strokeWidth=0.4;" parent="1" vertex="1">
            <mxGeometry x="-200" y="220" width="420" height="530" as="geometry" />
          </mxCell>
        </object>
      </root>
    </mxGraphModel>
  </diagram>
  <diagram id="HpkBo99gjJ2DwrZsj5hr" name="Schema-Objects">
    <mxGraphModel dx="1050" dy="621" grid="1" gridSize="10" guides="1" tooltips="1" connect="1" arrows="1" fold="1" page="1" pageScale="1" pageWidth="850" pageHeight="1100" math="0" shadow="0">
      <root>
        <mxCell id="0" />
        <mxCell id="1" parent="0" />
        <mxCell id="XjIlxkY459PRsCvaJ7Lo-1" value="" style="rounded=1;whiteSpace=wrap;html=1;fillColor=#DCF0DB;strokeColor=#82b366;" parent="1" vertex="1">
          <mxGeometry x="150" y="230" width="440" height="460" as="geometry" />
        </mxCell>
        <mxCell id="XjIlxkY459PRsCvaJ7Lo-2" value="&lt;font style=&quot;font-size: 38px;&quot;&gt;Schema Objects&lt;/font&gt;" style="text;html=1;align=center;verticalAlign=middle;whiteSpace=wrap;rounded=0;fontSize=38;fontStyle=1" parent="1" vertex="1">
          <mxGeometry x="115" y="280" width="470" height="30" as="geometry" />
        </mxCell>
        <object placeholders="1" c4Name="" c4Type="ContainerScopeBoundary" c4Application="Database Schema for each Module" label="&lt;font style=&quot;font-size: 16px&quot;&gt;&lt;span&gt;&lt;div style=&quot;text-align: center&quot;&gt;%c4Name%&lt;/div&gt;&lt;/span&gt;&lt;/font&gt;&lt;div style=&quot;text-align: left&quot;&gt;%c4Application%&lt;/div&gt;" id="XjIlxkY459PRsCvaJ7Lo-10">
          <mxCell style="rounded=0;fontSize=11;whiteSpace=wrap;html=1;dashed=1;arcSize=20;fillColor=none;strokeColor=#666666;fontColor=#333333;labelBackgroundColor=none;align=left;verticalAlign=bottom;labelBorderColor=none;spacingTop=0;spacing=10;metaEdit=1;rotatable=0;perimeter=rectanglePerimeter;noLabel=0;labelPadding=0;allowArrows=0;connectable=0;expand=0;recursiveResize=0;editable=1;pointerEvents=0;absoluteArcSize=1;points=[[0.25,0,0],[0.5,0,0],[0.75,0,0],[1,0.25,0],[1,0.5,0],[1,0.75,0],[0.75,1,0],[0.5,1,0],[0.25,1,0],[0,0.75,0],[0,0.5,0],[0,0.25,0]];fontStyle=3;strokeWidth=0.4;" parent="1" vertex="1">
            <mxGeometry x="130" y="210" width="480" height="520" as="geometry" />
          </mxCell>
        </object>
        <mxCell id="Q_e8Dqy2_4CtafEeQYr3-1" value="&lt;font size=&quot;1&quot; style=&quot;&quot;&gt;&lt;b style=&quot;font-size: 18px;&quot;&gt;Schema.View&lt;/b&gt;&lt;/font&gt;" style="html=1;whiteSpace=wrap;rounded=1;fillColor=#bac8d3;strokeColor=#23445d;" parent="1" vertex="1">
          <mxGeometry x="390" y="350" width="170" height="80" as="geometry" />
        </mxCell>
        <mxCell id="JEUFsUBIcLCGvoaK76ck-1" value="&lt;span style=&quot;font-size: 18px;&quot;&gt;&lt;b&gt;Schema.Table&lt;/b&gt;&lt;/span&gt;" style="html=1;whiteSpace=wrap;rounded=1;fillColor=#bac8d3;strokeColor=#23445d;" parent="1" vertex="1">
          <mxGeometry x="180" y="350" width="180" height="80" as="geometry" />
        </mxCell>
        <mxCell id="JEUFsUBIcLCGvoaK76ck-2" value="&lt;font size=&quot;1&quot; style=&quot;&quot;&gt;&lt;b style=&quot;font-size: 18px;&quot;&gt;Schema.Procedure&lt;/b&gt;&lt;/font&gt;" style="html=1;whiteSpace=wrap;rounded=1;fillColor=#bac8d3;strokeColor=#23445d;" parent="1" vertex="1">
          <mxGeometry x="180" y="460" width="180" height="80" as="geometry" />
        </mxCell>
        <mxCell id="JEUFsUBIcLCGvoaK76ck-3" value="&lt;font size=&quot;1&quot; style=&quot;&quot;&gt;&lt;b style=&quot;font-size: 18px;&quot;&gt;Schema.Trigger&lt;/b&gt;&lt;/font&gt;" style="html=1;whiteSpace=wrap;rounded=1;fillColor=#bac8d3;strokeColor=#23445d;" parent="1" vertex="1">
          <mxGeometry x="390" y="460" width="170" height="80" as="geometry" />
        </mxCell>
        <mxCell id="JEUFsUBIcLCGvoaK76ck-4" value="&lt;font size=&quot;1&quot; style=&quot;&quot;&gt;&lt;b style=&quot;font-size: 18px;&quot;&gt;Shema.Function&lt;/b&gt;&lt;/font&gt;" style="html=1;whiteSpace=wrap;rounded=1;fillColor=#bac8d3;strokeColor=#23445d;" parent="1" vertex="1">
          <mxGeometry x="180" y="570" width="180" height="80" as="geometry" />
        </mxCell>
        <mxCell id="JEUFsUBIcLCGvoaK76ck-5" value="&lt;font size=&quot;1&quot; style=&quot;&quot;&gt;&lt;b style=&quot;font-size: 18px;&quot;&gt;Schema.Other&lt;/b&gt;&lt;/font&gt;" style="html=1;whiteSpace=wrap;rounded=1;fillColor=#bac8d3;strokeColor=#23445d;" parent="1" vertex="1">
          <mxGeometry x="390" y="570" width="170" height="80" as="geometry" />
        </mxCell>
      </root>
    </mxGraphModel>
  </diagram>
  <diagram id="KUg_0bMVlHvCroeKolpB" name="Modular Database">
    <mxGraphModel dx="1050" dy="621" grid="1" gridSize="10" guides="1" tooltips="1" connect="1" arrows="1" fold="1" page="1" pageScale="1" pageWidth="850" pageHeight="1100" math="0" shadow="0">
      <root>
        <mxCell id="0" />
        <mxCell id="1" parent="0" />
        <mxCell id="xPIfBnfbizgaGiUJFqI3-1" value="" style="html=1;verticalLabelPosition=bottom;align=center;labelBackgroundColor=#ffffff;verticalAlign=top;strokeWidth=2;strokeColor=#666666;shadow=0;dashed=0;shape=mxgraph.ios7.icons.data;fillColor=#f5f5f5;gradientColor=#b3b3b3;labelBorderColor=#66B2FF;" parent="1" vertex="1">
          <mxGeometry x="180" y="120" width="350" height="410" as="geometry" />
        </mxCell>
        <mxCell id="xPIfBnfbizgaGiUJFqI3-2" value="Schema A" style="text;html=1;align=center;verticalAlign=middle;whiteSpace=wrap;rounded=0;fontStyle=1;fontSize=18;" parent="1" vertex="1">
          <mxGeometry x="290" y="260" width="115" height="30" as="geometry" />
        </mxCell>
        <mxCell id="xPIfBnfbizgaGiUJFqI3-3" value="Schema B&lt;div&gt;&lt;br&gt;&lt;/div&gt;" style="text;html=1;align=center;verticalAlign=middle;whiteSpace=wrap;rounded=0;fontStyle=1;fontSize=18;" parent="1" vertex="1">
          <mxGeometry x="297.5" y="360" width="115" height="30" as="geometry" />
        </mxCell>
        <mxCell id="xPIfBnfbizgaGiUJFqI3-4" value="Schema C" style="text;html=1;align=center;verticalAlign=middle;whiteSpace=wrap;rounded=0;fontStyle=1;fontSize=18;" parent="1" vertex="1">
          <mxGeometry x="297.5" y="460" width="115" height="30" as="geometry" />
        </mxCell>
        <mxCell id="xPIfBnfbizgaGiUJFqI3-6" value="&lt;ul style=&quot;font-size: 13px;&quot;&gt;&lt;li style=&quot;font-size: 13px;&quot;&gt;Tables&lt;/li&gt;&lt;li style=&quot;font-size: 13px;&quot;&gt;Views&lt;/li&gt;&lt;li style=&quot;font-size: 13px;&quot;&gt;Procedures&lt;/li&gt;&lt;li style=&quot;font-size: 13px;&quot;&gt;Triggers&lt;/li&gt;&lt;li style=&quot;font-size: 13px;&quot;&gt;Functions&lt;br style=&quot;font-size: 13px;&quot;&gt;&lt;/li&gt;&lt;li style=&quot;font-size: 13px;&quot;&gt;Others&lt;/li&gt;&lt;/ul&gt;" style="text;strokeColor=none;fillColor=none;html=1;whiteSpace=wrap;verticalAlign=middle;overflow=hidden;shadow=0;fontSize=13;fontStyle=3" parent="1" vertex="1">
          <mxGeometry x="620" y="180" width="120" height="110" as="geometry" />
        </mxCell>
        <mxCell id="xPIfBnfbizgaGiUJFqI3-9" style="rounded=0;orthogonalLoop=1;jettySize=auto;html=1;labelBorderColor=#6acff0;labelBackgroundColor=#3399FF;fillColor=#1ba1e2;strokeColor=#006EAF;entryX=0.1;entryY=0.5;entryDx=0;entryDy=0;entryPerimeter=0;exitX=1.011;exitY=0.511;exitDx=0;exitDy=0;exitPerimeter=0;" parent="1" source="xPIfBnfbizgaGiUJFqI3-1" target="xPIfBnfbizgaGiUJFqI3-10" edge="1">
          <mxGeometry relative="1" as="geometry">
            <mxPoint x="620" y="230" as="targetPoint" />
          </mxGeometry>
        </mxCell>
        <mxCell id="xPIfBnfbizgaGiUJFqI3-10" value="" style="shape=curlyBracket;whiteSpace=wrap;html=1;rounded=1;labelPosition=left;verticalLabelPosition=middle;align=right;verticalAlign=middle;" parent="1" vertex="1">
          <mxGeometry x="620" y="185" width="20" height="105" as="geometry" />
        </mxCell>
        <mxCell id="xPIfBnfbizgaGiUJFqI3-15" value="Modular Database" style="text;html=1;align=center;verticalAlign=middle;whiteSpace=wrap;rounded=0;fontStyle=1;fontSize=25;" parent="1" vertex="1">
          <mxGeometry x="240" y="160" width="230" height="30" as="geometry" />
        </mxCell>
        <object placeholders="1" c4Name="Modular Database" c4Type="ContainerScopeBoundary" c4Application="Container" label="&lt;font style=&quot;font-size: 16px&quot;&gt;&lt;b&gt;&lt;div style=&quot;text-align: left&quot;&gt;%c4Name%&lt;/div&gt;&lt;/b&gt;&lt;/font&gt;&lt;div style=&quot;text-align: left&quot;&gt;&lt;/div&gt;" id="uSoucQjS3T9MpitNGDIk-1">
          <mxCell style="rounded=0;fontSize=11;whiteSpace=wrap;html=1;dashed=1;arcSize=20;fillColor=none;strokeColor=#666666;fontColor=#333333;labelBackgroundColor=none;align=left;verticalAlign=bottom;labelBorderColor=none;spacingTop=0;spacing=10;dashPattern=8 4;metaEdit=1;rotatable=0;perimeter=rectanglePerimeter;noLabel=0;labelPadding=0;allowArrows=0;connectable=0;expand=0;recursiveResize=0;editable=1;pointerEvents=0;absoluteArcSize=1;points=[[0.25,0,0],[0.5,0,0],[0.75,0,0],[1,0.25,0],[1,0.5,0],[1,0.75,0],[0.75,1,0],[0.5,1,0],[0.25,1,0],[0,0.75,0],[0,0.5,0],[0,0.25,0]];strokeWidth=0.5;" parent="1" vertex="1">
            <mxGeometry x="150" y="100" width="600" height="470" as="geometry" />
          </mxCell>
        </object>
      </root>
    </mxGraphModel>
  </diagram>
  <diagram id="htjiSxEN57CovFc47MET" name="Routes ">
    <mxGraphModel dx="1050" dy="621" grid="1" gridSize="10" guides="1" tooltips="1" connect="1" arrows="1" fold="1" page="1" pageScale="1" pageWidth="850" pageHeight="1100" math="0" shadow="0">
      <root>
        <mxCell id="0" />
        <mxCell id="1" parent="0" />
        <mxCell id="jLpQ8vooyf42GrANBk5j-1" value="" style="ellipse;whiteSpace=wrap;html=1;aspect=fixed;fillColor=#C9DBC8;strokeColor=#82b366;" parent="1" vertex="1">
          <mxGeometry x="260" y="300" width="740" height="740" as="geometry" />
        </mxCell>
        <mxCell id="jLpQ8vooyf42GrANBk5j-2" value="" style="ellipse;whiteSpace=wrap;html=1;aspect=fixed;fillColor=#d5e8d4;strokeColor=#82b366;gradientColor=#97d077;" parent="1" vertex="1">
          <mxGeometry x="380" y="435" width="495" height="495" as="geometry" />
        </mxCell>
        <mxCell id="jLpQ8vooyf42GrANBk5j-3" value="" style="ellipse;whiteSpace=wrap;html=1;aspect=fixed;fillColor=#7B9E6E;strokeColor=#3A5431;gradientDirection=north;fontColor=#ffffff;gradientColor=#86C2A2;" parent="1" vertex="1">
          <mxGeometry x="513.75" y="568.75" width="227.5" height="227.5" as="geometry" />
        </mxCell>
        <mxCell id="jLpQ8vooyf42GrANBk5j-4" value="&lt;font style=&quot;font-size: 25px;&quot;&gt;Controller Routes&lt;/font&gt;" style="text;html=1;align=center;verticalAlign=middle;whiteSpace=wrap;rounded=0;fontSize=20;fontStyle=1" parent="1" vertex="1">
          <mxGeometry x="509" y="667.5" width="242" height="30" as="geometry" />
        </mxCell>
        <mxCell id="jLpQ8vooyf42GrANBk5j-5" value="&lt;font size=&quot;1&quot; style=&quot;&quot;&gt;&lt;b style=&quot;font-size: 29px;&quot;&gt;Module Routes&lt;/b&gt;&lt;/font&gt;" style="text;html=1;align=center;verticalAlign=middle;whiteSpace=wrap;rounded=0;fontSize=22;" parent="1" vertex="1">
          <mxGeometry x="509" y="500" width="224" height="30" as="geometry" />
        </mxCell>
        <mxCell id="jLpQ8vooyf42GrANBk5j-6" value="&lt;font size=&quot;1&quot; style=&quot;&quot;&gt;&lt;b style=&quot;font-size: 29px;&quot;&gt;Application Routes&lt;/b&gt;&lt;/font&gt;" style="text;html=1;align=center;verticalAlign=middle;whiteSpace=wrap;rounded=0;" parent="1" vertex="1">
          <mxGeometry x="488.75" y="370" width="277.5" height="30" as="geometry" />
        </mxCell>
        <mxCell id="jLpQ8vooyf42GrANBk5j-8" value="http://app.domain/module/controller" style="text;html=1;align=center;verticalAlign=middle;whiteSpace=wrap;rounded=0;fontSize=23;fontStyle=1" parent="1" vertex="1">
          <mxGeometry x="1310" y="380" width="300" height="30" as="geometry" />
        </mxCell>
        <mxCell id="jLpQ8vooyf42GrANBk5j-13" value="/controller" style="text;html=1;align=center;verticalAlign=middle;whiteSpace=wrap;rounded=0;fontSize=23;fontStyle=1" parent="1" vertex="1">
          <mxGeometry x="1090" y="660" width="200" height="30" as="geometry" />
        </mxCell>
        <mxCell id="jLpQ8vooyf42GrANBk5j-14" value="/module/controller" style="text;html=1;align=center;verticalAlign=middle;whiteSpace=wrap;rounded=0;fontSize=23;fontStyle=1" parent="1" vertex="1">
          <mxGeometry x="1190" y="510" width="230" height="30" as="geometry" />
        </mxCell>
        <mxCell id="jLpQ8vooyf42GrANBk5j-20" value="" style="endArrow=classic;html=1;rounded=0;strokeWidth=2;dashed=1;fillColor=#d5e8d4;strokeColor=#82b366;" parent="1" edge="1">
          <mxGeometry width="50" height="50" relative="1" as="geometry">
            <mxPoint x="733" y="685" as="sourcePoint" />
            <mxPoint x="1130" y="680" as="targetPoint" />
          </mxGeometry>
        </mxCell>
        <object placeholders="1" c4Name="Application Routes" c4Type="SystemScopeBoundary" c4Application="Software System" label="&lt;font style=&quot;font-size: 16px&quot;&gt;&lt;b&gt;&lt;div style=&quot;text-align: left&quot;&gt;%c4Name%&lt;/div&gt;&lt;/b&gt;&lt;/font&gt;&lt;div style=&quot;text-align: left&quot;&gt;[%c4Application%]&lt;/div&gt;" id="LBr3_Q_nMz_RCjk1HByQ-2">
          <mxCell style="rounded=0;fontSize=11;whiteSpace=wrap;html=1;dashed=1;arcSize=20;fillColor=none;strokeColor=#666666;fontColor=#333333;labelBackgroundColor=none;align=left;verticalAlign=bottom;labelBorderColor=none;spacingTop=0;spacing=10;dashPattern=8 4;metaEdit=1;rotatable=0;perimeter=rectanglePerimeter;noLabel=0;labelPadding=0;allowArrows=0;connectable=0;expand=0;recursiveResize=0;editable=1;pointerEvents=0;absoluteArcSize=1;points=[[0.25,0,0],[0.5,0,0],[0.75,0,0],[1,0.25,0],[1,0.5,0],[1,0.75,0],[0.75,1,0],[0.5,1,0],[0.25,1,0],[0,0.75,0],[0,0.5,0],[0,0.25,0]];strokeWidth=0.4;" parent="1" vertex="1">
            <mxGeometry x="240" y="280" width="1430" height="780" as="geometry" />
          </mxCell>
        </object>
        <mxCell id="LBr3_Q_nMz_RCjk1HByQ-4" value="" style="endArrow=classic;html=1;rounded=0;strokeWidth=2;dashed=1;fillColor=#d5e8d4;strokeColor=#82b366;" parent="1" edge="1">
          <mxGeometry width="50" height="50" relative="1" as="geometry">
            <mxPoint x="820" y="530" as="sourcePoint" />
            <mxPoint x="1190" y="530" as="targetPoint" />
          </mxGeometry>
        </mxCell>
        <mxCell id="LBr3_Q_nMz_RCjk1HByQ-5" value="" style="endArrow=classic;html=1;rounded=0;strokeWidth=2;dashed=1;fillColor=#d5e8d4;strokeColor=#82b366;" parent="1" edge="1">
          <mxGeometry width="50" height="50" relative="1" as="geometry">
            <mxPoint x="880" y="397.75" as="sourcePoint" />
            <mxPoint x="1260" y="398" as="targetPoint" />
          </mxGeometry>
        </mxCell>
      </root>
    </mxGraphModel>
  </diagram>
  <diagram id="4muSBOOMRHle7wxFtj3l" name="Communication by Messaging">
    <mxGraphModel dx="1050" dy="621" grid="1" gridSize="10" guides="1" tooltips="1" connect="1" arrows="1" fold="1" page="1" pageScale="1" pageWidth="850" pageHeight="1100" math="0" shadow="0">
      <root>
        <mxCell id="0" />
        <mxCell id="1" parent="0" />
        <object placeholders="1" c4Name="Module Commuminication by Messaging" c4Type="SystemScopeBoundary" c4Application="Software System" label="&lt;font style=&quot;font-size: 16px&quot;&gt;&lt;b&gt;&lt;div style=&quot;text-align: left&quot;&gt;%c4Name%&lt;/div&gt;&lt;/b&gt;&lt;/font&gt;&lt;div style=&quot;text-align: left&quot;&gt;[%c4Application%]&lt;/div&gt;" id="fMJiMuw9cCGgAMzBKRTZ-1">
          <mxCell style="rounded=0;fontSize=11;whiteSpace=wrap;html=1;dashed=1;arcSize=20;fillColor=none;strokeColor=#666666;fontColor=#333333;labelBackgroundColor=none;align=left;verticalAlign=bottom;labelBorderColor=none;spacingTop=0;spacing=10;dashPattern=8 4;metaEdit=1;rotatable=0;perimeter=rectanglePerimeter;noLabel=0;labelPadding=0;allowArrows=0;connectable=0;expand=0;recursiveResize=0;editable=1;pointerEvents=0;absoluteArcSize=1;points=[[0.25,0,0],[0.5,0,0],[0.75,0,0],[1,0.25,0],[1,0.5,0],[1,0.75,0],[0.75,1,0],[0.5,1,0],[0.25,1,0],[0,0.75,0],[0,0.5,0],[0,0.25,0]];strokeWidth=0.5;" parent="1" vertex="1">
            <mxGeometry x="50" y="250" width="1100" height="590" as="geometry" />
          </mxCell>
        </object>
        <object placeholders="1" c4Name="&#xa;Message Bus " c4Type="Container" c4Technology="" c4Description="" label="&lt;font style=&quot;font-size: 28px;&quot;&gt;&lt;b style=&quot;font-size: 28px;&quot;&gt;%c4Name%&lt;/b&gt;&lt;/font&gt;&lt;div style=&quot;font-size: 28px;&quot;&gt;%c4Technology%&lt;/div&gt;&lt;br style=&quot;font-size: 28px;&quot;&gt;&lt;div style=&quot;font-size: 28px;&quot;&gt;&lt;font style=&quot;font-size: 28px;&quot;&gt;&lt;font style=&quot;font-size: 28px;&quot; color=&quot;#E6E6E6&quot;&gt;%c4Description%&lt;/font&gt;&lt;/font&gt;&lt;/div&gt;" id="fMJiMuw9cCGgAMzBKRTZ-2">
          <mxCell style="shape=cylinder3;size=15;direction=south;whiteSpace=wrap;html=1;boundedLbl=1;rounded=0;labelBackgroundColor=none;fillColor=#f8cecc;fontSize=28;align=center;strokeColor=#b85450;metaEdit=1;points=[[0.5,0,0],[1,0.25,0],[1,0.5,0],[1,0.75,0],[0.5,1,0],[0,0.75,0],[0,0.5,0],[0,0.25,0]];resizable=0;" parent="1" vertex="1">
            <mxGeometry x="470" y="570" width="240" height="120" as="geometry" />
          </mxCell>
        </object>
        <object placeholders="1" c4Name="&#xa;Module A" c4Type="Component" c4Technology="e.g. Spring Service" c4Description="" label="&lt;font style=&quot;font-size: 28px;&quot;&gt;&lt;b style=&quot;font-size: 28px;&quot;&gt;%c4Name%&lt;/b&gt;&lt;/font&gt;&lt;div style=&quot;font-size: 28px;&quot;&gt;&lt;/div&gt;&lt;br style=&quot;font-size: 28px;&quot;&gt;&lt;div style=&quot;font-size: 28px;&quot;&gt;&lt;font style=&quot;font-size: 28px;&quot;&gt;%c4Description%&lt;/font&gt;&lt;/div&gt;" id="fMJiMuw9cCGgAMzBKRTZ-5">
          <mxCell style="rounded=1;whiteSpace=wrap;html=1;labelBackgroundColor=none;fillColor=#647687;fontColor=#ffffff;align=center;arcSize=6;strokeColor=#314354;metaEdit=1;resizable=0;points=[[0.25,0,0],[0.5,0,0],[0.75,0,0],[1,0.25,0],[1,0.5,0],[1,0.75,0],[0.75,1,0],[0.5,1,0],[0.25,1,0],[0,0.75,0],[0,0.5,0],[0,0.25,0]];fontSize=28;" parent="1" vertex="1">
            <mxGeometry x="80" y="320" width="240" height="120" as="geometry" />
          </mxCell>
        </object>
        <object placeholders="1" c4Name="&#xa;Module B" c4Type="Component" c4Technology="e.g. Spring Service" c4Description="" label="&lt;font style=&quot;font-size: 28px;&quot;&gt;&lt;b style=&quot;font-size: 28px;&quot;&gt;%c4Name%&lt;/b&gt;&lt;/font&gt;&lt;div style=&quot;font-size: 28px;&quot;&gt;&lt;/div&gt;&lt;br style=&quot;font-size: 28px;&quot;&gt;&lt;div style=&quot;font-size: 28px;&quot;&gt;&lt;font style=&quot;font-size: 28px;&quot;&gt;%c4Description%&lt;/font&gt;&lt;/div&gt;" id="fMJiMuw9cCGgAMzBKRTZ-7">
          <mxCell style="rounded=1;whiteSpace=wrap;html=1;labelBackgroundColor=none;fillColor=#647687;fontColor=#ffffff;align=center;arcSize=6;strokeColor=#314354;metaEdit=1;resizable=0;points=[[0.25,0,0],[0.5,0,0],[0.75,0,0],[1,0.25,0],[1,0.5,0],[1,0.75,0],[0.75,1,0],[0.5,1,0],[0.25,1,0],[0,0.75,0],[0,0.5,0],[0,0.25,0]];fontSize=28;" parent="1" vertex="1">
            <mxGeometry x="880" y="320" width="240" height="120" as="geometry" />
          </mxCell>
        </object>
        <object placeholders="1" c4Type="Relationship" id="fMJiMuw9cCGgAMzBKRTZ-9">
          <mxCell style="endArrow=blockThin;html=1;fontSize=10;fontColor=#404040;strokeWidth=2;endFill=1;strokeColor=#828282;elbow=vertical;metaEdit=1;endSize=14;startSize=14;jumpStyle=arc;jumpSize=16;rounded=0;edgeStyle=orthogonalEdgeStyle;exitX=0.335;exitY=1.027;exitDx=0;exitDy=0;exitPerimeter=0;" parent="1" source="fMJiMuw9cCGgAMzBKRTZ-5" target="fMJiMuw9cCGgAMzBKRTZ-2" edge="1">
            <mxGeometry width="240" relative="1" as="geometry">
              <mxPoint x="160" y="452" as="sourcePoint" />
              <mxPoint x="340" y="660" as="targetPoint" />
              <Array as="points">
                <mxPoint x="160" y="660" />
              </Array>
            </mxGeometry>
          </mxCell>
        </object>
        <object placeholders="1" c4Type="Relationship" id="fMJiMuw9cCGgAMzBKRTZ-11">
          <mxCell style="endArrow=blockThin;html=1;fontSize=10;fontColor=#404040;strokeWidth=2;endFill=1;strokeColor=#828282;elbow=vertical;metaEdit=1;endSize=14;startSize=14;jumpStyle=arc;jumpSize=16;rounded=0;edgeStyle=orthogonalEdgeStyle;exitX=0.377;exitY=1.01;exitDx=0;exitDy=0;exitPerimeter=0;" parent="1" edge="1">
            <mxGeometry width="240" relative="1" as="geometry">
              <mxPoint x="469.9999999999999" y="605.24" as="sourcePoint" />
              <mxPoint x="222.4" y="440" as="targetPoint" />
              <Array as="points">
                <mxPoint x="223.4" y="605" />
              </Array>
            </mxGeometry>
          </mxCell>
        </object>
        <object placeholders="1" c4Type="Relationship" id="HGUvb0VNojGdCowsVtzC-2">
          <mxCell style="endArrow=blockThin;html=1;fontSize=10;fontColor=#404040;strokeWidth=2;endFill=1;strokeColor=#828282;elbow=vertical;metaEdit=1;endSize=14;startSize=14;jumpStyle=arc;jumpSize=16;rounded=0;edgeStyle=orthogonalEdgeStyle;" parent="1" source="fMJiMuw9cCGgAMzBKRTZ-2" edge="1">
            <mxGeometry width="240" relative="1" as="geometry">
              <mxPoint x="750" y="654.58" as="sourcePoint" />
              <mxPoint x="1030" y="435" as="targetPoint" />
              <Array as="points">
                <mxPoint x="1029" y="655" />
              </Array>
            </mxGeometry>
          </mxCell>
        </object>
        <object placeholders="1" c4Type="Relationship" id="HGUvb0VNojGdCowsVtzC-3">
          <mxCell style="endArrow=blockThin;html=1;fontSize=10;fontColor=#404040;strokeWidth=2;endFill=1;strokeColor=#828282;elbow=vertical;metaEdit=1;endSize=14;startSize=14;jumpStyle=arc;jumpSize=16;rounded=0;edgeStyle=orthogonalEdgeStyle;" parent="1" edge="1">
            <mxGeometry width="240" relative="1" as="geometry">
              <mxPoint x="960" y="440" as="sourcePoint" />
              <mxPoint x="710" y="610" as="targetPoint" />
              <Array as="points">
                <mxPoint x="960" y="610" />
              </Array>
            </mxGeometry>
          </mxCell>
        </object>
        <mxCell id="uOZ1NGQyUF_j5dUGv6je-2" value="- Apache Kafka&lt;br style=&quot;font-size: 15px;&quot;&gt;- RabbitMQ&lt;br style=&quot;font-size: 15px;&quot;&gt;- Google Pubsub" style="shape=note;strokeWidth=2;fontSize=15;size=20;whiteSpace=wrap;html=1;fillColor=#fff2cc;strokeColor=#d6b656;fontColor=#4D4D4D;fontStyle=3" parent="1" vertex="1">
          <mxGeometry x="530" y="740" width="150" height="80" as="geometry" />
        </mxCell>
        <mxCell id="uOZ1NGQyUF_j5dUGv6je-3" value="" style="endArrow=none;dashed=1;html=1;dashPattern=1 3;strokeWidth=2;rounded=0;exitX=0;exitY=0;exitDx=65;exitDy=0;exitPerimeter=0;" parent="1" source="uOZ1NGQyUF_j5dUGv6je-2" edge="1">
          <mxGeometry width="50" height="50" relative="1" as="geometry">
            <mxPoint x="560" y="740" as="sourcePoint" />
            <mxPoint x="610" y="690" as="targetPoint" />
          </mxGeometry>
        </mxCell>
        <mxCell id="uOZ1NGQyUF_j5dUGv6je-5" value="&lt;h1 style=&quot;margin-top: 0px;&quot;&gt;Module Communication&lt;/h1&gt;&lt;p style=&quot;font-size: 15px;&quot;&gt;&lt;span style=&quot;color: rgb(77, 77, 77); font-size: 16px; font-style: italic; font-weight: 700; text-align: center;&quot;&gt;-&lt;/span&gt;&lt;font style=&quot;font-size: 15px;&quot;&gt;&lt;span style=&quot;color: rgb(77, 77, 77); font-style: italic; font-weight: 700; text-align: center;&quot;&gt; Asynchronous&lt;/span&gt;&lt;/font&gt;&lt;/p&gt;&lt;p style=&quot;font-size: 15px;&quot;&gt;&lt;font style=&quot;font-size: 15px;&quot;&gt;&lt;span style=&quot;color: rgb(77, 77, 77); font-style: italic; font-weight: 700; text-align: center;&quot;&gt;- Interfaces for message contracts&lt;/span&gt;&lt;/font&gt;&lt;/p&gt;&lt;p style=&quot;font-size: 15px;&quot;&gt;&lt;span style=&quot;background-color: initial; color: rgb(77, 77, 77); font-style: italic; font-weight: 700; text-align: center;&quot;&gt;- Completely Decoupled&lt;/span&gt;&lt;/p&gt;" style="text;html=1;whiteSpace=wrap;overflow=hidden;rounded=0;" parent="1" vertex="1">
          <mxGeometry x="420" y="280" width="320" height="160" as="geometry" />
        </mxCell>
      </root>
    </mxGraphModel>
  </diagram>
  <diagram id="0AgLSVFiZfcss89PyoU3" name="Coupling and Cohesion">
    <mxGraphModel dx="1050" dy="621" grid="1" gridSize="10" guides="1" tooltips="1" connect="1" arrows="1" fold="1" page="1" pageScale="1" pageWidth="850" pageHeight="1100" math="0" shadow="0">
      <root>
        <mxCell id="0" />
        <mxCell id="1" parent="0" />
        <object placeholders="1" c4Name="Coupling and Cohesion" c4Type="SystemScopeBoundary" c4Application="" label="&lt;font style=&quot;font-size: 16px&quot;&gt;&lt;b&gt;&lt;div style=&quot;text-align: left&quot;&gt;%c4Name%&lt;/div&gt;&lt;/b&gt;&lt;/font&gt;&lt;div style=&quot;text-align: left&quot;&gt;&lt;/div&gt;" id="mbGB87XxKhptI2jz_Z91-1">
          <mxCell style="rounded=0;fontSize=11;whiteSpace=wrap;html=1;dashed=1;arcSize=20;fillColor=none;strokeColor=#666666;fontColor=#333333;labelBackgroundColor=none;align=left;verticalAlign=bottom;labelBorderColor=none;spacingTop=0;spacing=10;dashPattern=8 4;metaEdit=1;rotatable=0;perimeter=rectanglePerimeter;noLabel=0;labelPadding=0;allowArrows=0;connectable=0;expand=0;recursiveResize=0;editable=1;pointerEvents=0;absoluteArcSize=1;points=[[0.25,0,0],[0.5,0,0],[0.75,0,0],[1,0.25,0],[1,0.5,0],[1,0.75,0],[0.75,1,0],[0.5,1,0],[0.25,1,0],[0,0.75,0],[0,0.5,0],[0,0.25,0]];strokeWidth=0.4;" parent="1" vertex="1">
            <mxGeometry x="100" y="190" width="940" height="370" as="geometry" />
          </mxCell>
        </object>
        <mxCell id="mbGB87XxKhptI2jz_Z91-2" value="" style="rounded=0;whiteSpace=wrap;html=1;strokeWidth=0.3;dashed=1;dashPattern=1 4;" parent="1" vertex="1">
          <mxGeometry x="120" y="210" width="230" height="220" as="geometry" />
        </mxCell>
        <mxCell id="mbGB87XxKhptI2jz_Z91-3" value="&lt;font style=&quot;font-size: 20px;&quot;&gt;&lt;b&gt;A&lt;/b&gt;&lt;/font&gt;" style="ellipse;whiteSpace=wrap;html=1;aspect=fixed;strokeWidth=2;fillColor=#bac8d3;strokeColor=#23445d;" parent="1" vertex="1">
          <mxGeometry x="130" y="220" width="60" height="60" as="geometry" />
        </mxCell>
        <mxCell id="mbGB87XxKhptI2jz_Z91-4" value="&lt;font style=&quot;font-size: 20px;&quot;&gt;&lt;b&gt;B&lt;/b&gt;&lt;/font&gt;" style="ellipse;whiteSpace=wrap;html=1;aspect=fixed;strokeWidth=2;fillColor=#bac8d3;strokeColor=#23445d;" parent="1" vertex="1">
          <mxGeometry x="280" y="220" width="60" height="60" as="geometry" />
        </mxCell>
        <mxCell id="mbGB87XxKhptI2jz_Z91-7" value="&lt;font style=&quot;font-size: 20px;&quot;&gt;&lt;b&gt;C&lt;/b&gt;&lt;/font&gt;" style="ellipse;whiteSpace=wrap;html=1;aspect=fixed;strokeWidth=2;fillColor=#bac8d3;strokeColor=#23445d;" parent="1" vertex="1">
          <mxGeometry x="130" y="360" width="60" height="60" as="geometry" />
        </mxCell>
        <mxCell id="mbGB87XxKhptI2jz_Z91-8" value="&lt;font style=&quot;font-size: 20px;&quot;&gt;&lt;b&gt;D&lt;/b&gt;&lt;/font&gt;" style="ellipse;whiteSpace=wrap;html=1;aspect=fixed;strokeWidth=2;fillColor=#bac8d3;strokeColor=#23445d;" parent="1" vertex="1">
          <mxGeometry x="280" y="360" width="60" height="60" as="geometry" />
        </mxCell>
        <mxCell id="mbGB87XxKhptI2jz_Z91-9" value="&lt;font color=&quot;#3333ff&quot; style=&quot;font-size: 18px;&quot;&gt;1) Un&lt;/font&gt;&lt;span style=&quot;color: rgb(51, 51, 255); background-color: initial;&quot;&gt;copled:&lt;/span&gt;&lt;div&gt;&lt;font color=&quot;#3333ff&quot; style=&quot;font-size: 18px;&quot;&gt;No dependencies&lt;/font&gt;&lt;/div&gt;" style="text;html=1;align=left;verticalAlign=middle;whiteSpace=wrap;rounded=0;fontStyle=1;fontSize=18;" parent="1" vertex="1">
          <mxGeometry x="150" y="460" width="170" height="30" as="geometry" />
        </mxCell>
        <mxCell id="mbGB87XxKhptI2jz_Z91-18" value="&lt;font color=&quot;#3333ff&quot; style=&quot;font-size: 18px;&quot;&gt;2) Losely Coupled: &lt;br style=&quot;font-size: 18px;&quot;&gt;Some dependencies&lt;/font&gt;" style="text;html=1;align=left;verticalAlign=middle;whiteSpace=wrap;rounded=0;fontStyle=1;fontSize=18;" parent="1" vertex="1">
          <mxGeometry x="485" y="460" width="180" height="30" as="geometry" />
        </mxCell>
        <mxCell id="mbGB87XxKhptI2jz_Z91-23" value="&lt;font color=&quot;#3333ff&quot; style=&quot;font-size: 18px;&quot;&gt;3) Highly Coupled:&lt;br style=&quot;font-size: 18px;&quot;&gt;Many dependencies&lt;/font&gt;" style="text;html=1;align=left;verticalAlign=middle;whiteSpace=wrap;rounded=0;fontStyle=1;fontSize=18;" parent="1" vertex="1">
          <mxGeometry x="800" y="460" width="190" height="30" as="geometry" />
        </mxCell>
        <mxCell id="mbGB87XxKhptI2jz_Z91-28" value="" style="rounded=0;whiteSpace=wrap;html=1;strokeWidth=0.3;dashed=1;dashPattern=1 4;" parent="1" vertex="1">
          <mxGeometry x="455" y="210" width="230" height="220" as="geometry" />
        </mxCell>
        <mxCell id="mbGB87XxKhptI2jz_Z91-44" style="edgeStyle=orthogonalEdgeStyle;rounded=0;orthogonalLoop=1;jettySize=auto;html=1;exitX=0.317;exitY=1.004;exitDx=0;exitDy=0;exitPerimeter=0;" parent="1" source="mbGB87XxKhptI2jz_Z91-34" edge="1">
          <mxGeometry relative="1" as="geometry">
            <mxPoint x="485" y="290" as="sourcePoint" />
            <mxPoint x="484" y="360" as="targetPoint" />
          </mxGeometry>
        </mxCell>
        <mxCell id="mbGB87XxKhptI2jz_Z91-34" value="&lt;font style=&quot;font-size: 20px;&quot;&gt;&lt;b&gt;A&lt;/b&gt;&lt;/font&gt;" style="ellipse;whiteSpace=wrap;html=1;aspect=fixed;strokeWidth=2;fillColor=#bac8d3;strokeColor=#23445d;" parent="1" vertex="1">
          <mxGeometry x="465" y="220" width="60" height="60" as="geometry" />
        </mxCell>
        <mxCell id="mbGB87XxKhptI2jz_Z91-48" style="edgeStyle=orthogonalEdgeStyle;rounded=0;orthogonalLoop=1;jettySize=auto;html=1;exitX=0.703;exitY=1;exitDx=0;exitDy=0;exitPerimeter=0;entryX=0.703;entryY=0;entryDx=0;entryDy=0;entryPerimeter=0;" parent="1" source="mbGB87XxKhptI2jz_Z91-35" target="mbGB87XxKhptI2jz_Z91-37" edge="1">
          <mxGeometry relative="1" as="geometry">
            <mxPoint x="654" y="360" as="targetPoint" />
          </mxGeometry>
        </mxCell>
        <mxCell id="mbGB87XxKhptI2jz_Z91-35" value="&lt;font style=&quot;font-size: 20px;&quot;&gt;&lt;b&gt;B&lt;/b&gt;&lt;/font&gt;" style="ellipse;whiteSpace=wrap;html=1;aspect=fixed;strokeWidth=2;fillColor=#bac8d3;strokeColor=#23445d;" parent="1" vertex="1">
          <mxGeometry x="615" y="220" width="60" height="60" as="geometry" />
        </mxCell>
        <mxCell id="mbGB87XxKhptI2jz_Z91-45" style="edgeStyle=orthogonalEdgeStyle;rounded=0;orthogonalLoop=1;jettySize=auto;html=1;entryX=0.667;entryY=1;entryDx=0;entryDy=0;entryPerimeter=0;exitX=0.667;exitY=0.054;exitDx=0;exitDy=0;exitPerimeter=0;" parent="1" source="mbGB87XxKhptI2jz_Z91-36" target="mbGB87XxKhptI2jz_Z91-34" edge="1">
          <mxGeometry relative="1" as="geometry">
            <mxPoint x="505" y="350" as="sourcePoint" />
            <mxPoint x="505" y="290" as="targetPoint" />
          </mxGeometry>
        </mxCell>
        <mxCell id="mbGB87XxKhptI2jz_Z91-36" value="&lt;font style=&quot;font-size: 20px;&quot;&gt;&lt;b&gt;C&lt;/b&gt;&lt;/font&gt;" style="ellipse;whiteSpace=wrap;html=1;aspect=fixed;strokeWidth=2;fillColor=#bac8d3;strokeColor=#23445d;" parent="1" vertex="1">
          <mxGeometry x="465" y="360" width="60" height="60" as="geometry" />
        </mxCell>
        <mxCell id="mbGB87XxKhptI2jz_Z91-46" style="edgeStyle=orthogonalEdgeStyle;rounded=0;orthogonalLoop=1;jettySize=auto;html=1;" parent="1" source="mbGB87XxKhptI2jz_Z91-37" target="mbGB87XxKhptI2jz_Z91-36" edge="1">
          <mxGeometry relative="1" as="geometry" />
        </mxCell>
        <mxCell id="mbGB87XxKhptI2jz_Z91-47" style="edgeStyle=orthogonalEdgeStyle;rounded=0;orthogonalLoop=1;jettySize=auto;html=1;" parent="1" source="mbGB87XxKhptI2jz_Z91-37" edge="1">
          <mxGeometry relative="1" as="geometry">
            <mxPoint x="635" y="280" as="targetPoint" />
            <Array as="points">
              <mxPoint x="635" y="280" />
            </Array>
          </mxGeometry>
        </mxCell>
        <mxCell id="mbGB87XxKhptI2jz_Z91-37" value="&lt;font style=&quot;font-size: 20px;&quot;&gt;&lt;b&gt;D&lt;/b&gt;&lt;/font&gt;" style="ellipse;whiteSpace=wrap;html=1;aspect=fixed;strokeWidth=2;fillColor=#bac8d3;strokeColor=#23445d;" parent="1" vertex="1">
          <mxGeometry x="615" y="360" width="60" height="60" as="geometry" />
        </mxCell>
        <mxCell id="mbGB87XxKhptI2jz_Z91-38" value="" style="rounded=0;whiteSpace=wrap;html=1;strokeWidth=0.3;dashed=1;dashPattern=1 4;" parent="1" vertex="1">
          <mxGeometry x="790" y="210" width="230" height="220" as="geometry" />
        </mxCell>
        <mxCell id="mbGB87XxKhptI2jz_Z91-50" style="edgeStyle=orthogonalEdgeStyle;rounded=0;orthogonalLoop=1;jettySize=auto;html=1;entryX=0;entryY=0.5;entryDx=0;entryDy=0;" parent="1" target="mbGB87XxKhptI2jz_Z91-40" edge="1">
          <mxGeometry relative="1" as="geometry">
            <mxPoint x="850" y="250" as="sourcePoint" />
            <mxPoint x="960" y="260" as="targetPoint" />
          </mxGeometry>
        </mxCell>
        <mxCell id="mbGB87XxKhptI2jz_Z91-55" style="edgeStyle=orthogonalEdgeStyle;rounded=0;orthogonalLoop=1;jettySize=auto;html=1;" parent="1" source="mbGB87XxKhptI2jz_Z91-39" target="mbGB87XxKhptI2jz_Z91-41" edge="1">
          <mxGeometry relative="1" as="geometry" />
        </mxCell>
        <mxCell id="mbGB87XxKhptI2jz_Z91-39" value="&lt;font style=&quot;font-size: 20px;&quot;&gt;&lt;b&gt;A&lt;/b&gt;&lt;/font&gt;" style="ellipse;whiteSpace=wrap;html=1;aspect=fixed;strokeWidth=2;fillColor=#bac8d3;strokeColor=#23445d;" parent="1" vertex="1">
          <mxGeometry x="800" y="220" width="60" height="60" as="geometry" />
        </mxCell>
        <mxCell id="mbGB87XxKhptI2jz_Z91-56" style="edgeStyle=orthogonalEdgeStyle;rounded=0;orthogonalLoop=1;jettySize=auto;html=1;exitX=0.683;exitY=0.938;exitDx=0;exitDy=0;exitPerimeter=0;entryX=0.683;entryY=0.038;entryDx=0;entryDy=0;entryPerimeter=0;" parent="1" source="mbGB87XxKhptI2jz_Z91-40" target="mbGB87XxKhptI2jz_Z91-42" edge="1">
          <mxGeometry relative="1" as="geometry" />
        </mxCell>
        <mxCell id="mbGB87XxKhptI2jz_Z91-67" style="edgeStyle=orthogonalEdgeStyle;rounded=0;orthogonalLoop=1;jettySize=auto;html=1;entryX=1;entryY=0;entryDx=0;entryDy=0;exitX=0;exitY=0;exitDx=0;exitDy=0;" parent="1" source="mbGB87XxKhptI2jz_Z91-40" target="mbGB87XxKhptI2jz_Z91-39" edge="1">
          <mxGeometry relative="1" as="geometry" />
        </mxCell>
        <mxCell id="mbGB87XxKhptI2jz_Z91-40" value="&lt;font style=&quot;font-size: 20px;&quot;&gt;&lt;b&gt;B&lt;/b&gt;&lt;/font&gt;" style="ellipse;whiteSpace=wrap;html=1;aspect=fixed;strokeWidth=2;fillColor=#bac8d3;strokeColor=#23445d;" parent="1" vertex="1">
          <mxGeometry x="950" y="220" width="60" height="60" as="geometry" />
        </mxCell>
        <mxCell id="mbGB87XxKhptI2jz_Z91-54" style="edgeStyle=orthogonalEdgeStyle;rounded=0;orthogonalLoop=1;jettySize=auto;html=1;" parent="1" source="mbGB87XxKhptI2jz_Z91-41" target="mbGB87XxKhptI2jz_Z91-42" edge="1">
          <mxGeometry relative="1" as="geometry" />
        </mxCell>
        <mxCell id="mbGB87XxKhptI2jz_Z91-64" style="edgeStyle=orthogonalEdgeStyle;rounded=0;orthogonalLoop=1;jettySize=auto;html=1;exitX=0;exitY=0;exitDx=0;exitDy=0;entryX=0;entryY=1;entryDx=0;entryDy=0;" parent="1" source="mbGB87XxKhptI2jz_Z91-41" target="mbGB87XxKhptI2jz_Z91-39" edge="1">
          <mxGeometry relative="1" as="geometry">
            <mxPoint x="819" y="369" as="sourcePoint" />
            <mxPoint x="819" y="280" as="targetPoint" />
          </mxGeometry>
        </mxCell>
        <mxCell id="mbGB87XxKhptI2jz_Z91-41" value="&lt;font style=&quot;font-size: 20px;&quot;&gt;&lt;b&gt;C&lt;/b&gt;&lt;/font&gt;" style="ellipse;whiteSpace=wrap;html=1;aspect=fixed;strokeWidth=2;fillColor=#bac8d3;strokeColor=#23445d;" parent="1" vertex="1">
          <mxGeometry x="800" y="360" width="60" height="60" as="geometry" />
        </mxCell>
        <mxCell id="mbGB87XxKhptI2jz_Z91-65" style="edgeStyle=orthogonalEdgeStyle;rounded=0;orthogonalLoop=1;jettySize=auto;html=1;entryX=0.367;entryY=0.954;entryDx=0;entryDy=0;entryPerimeter=0;exitX=0.367;exitY=0.021;exitDx=0;exitDy=0;exitPerimeter=0;" parent="1" source="mbGB87XxKhptI2jz_Z91-42" target="mbGB87XxKhptI2jz_Z91-40" edge="1">
          <mxGeometry relative="1" as="geometry" />
        </mxCell>
        <mxCell id="mbGB87XxKhptI2jz_Z91-68" style="edgeStyle=orthogonalEdgeStyle;rounded=0;orthogonalLoop=1;jettySize=auto;html=1;entryX=1;entryY=1;entryDx=0;entryDy=0;exitX=0;exitY=1;exitDx=0;exitDy=0;" parent="1" source="mbGB87XxKhptI2jz_Z91-42" target="mbGB87XxKhptI2jz_Z91-41" edge="1">
          <mxGeometry relative="1" as="geometry" />
        </mxCell>
        <mxCell id="mbGB87XxKhptI2jz_Z91-42" value="&lt;font style=&quot;font-size: 20px;&quot;&gt;&lt;b&gt;D&lt;/b&gt;&lt;/font&gt;" style="ellipse;whiteSpace=wrap;html=1;aspect=fixed;strokeWidth=2;fillColor=#bac8d3;strokeColor=#23445d;" parent="1" vertex="1">
          <mxGeometry x="950" y="360" width="60" height="60" as="geometry" />
        </mxCell>
        <mxCell id="mbGB87XxKhptI2jz_Z91-43" value="" style="endArrow=classic;html=1;rounded=0;entryX=0;entryY=0.5;entryDx=0;entryDy=0;exitX=1;exitY=0.5;exitDx=0;exitDy=0;" parent="1" source="mbGB87XxKhptI2jz_Z91-34" target="mbGB87XxKhptI2jz_Z91-35" edge="1">
          <mxGeometry width="50" height="50" relative="1" as="geometry">
            <mxPoint x="535" y="250" as="sourcePoint" />
            <mxPoint x="585" y="200" as="targetPoint" />
          </mxGeometry>
        </mxCell>
        <mxCell id="mbGB87XxKhptI2jz_Z91-60" value="" style="endArrow=classic;html=1;rounded=0;entryX=0;entryY=1;entryDx=0;entryDy=0;" parent="1" edge="1">
          <mxGeometry width="50" height="50" relative="1" as="geometry">
            <mxPoint x="841.21" y="360" as="sourcePoint" />
            <mxPoint x="949.9967965644034" y="261.2132034355966" as="targetPoint" />
          </mxGeometry>
        </mxCell>
        <mxCell id="mbGB87XxKhptI2jz_Z91-61" value="" style="endArrow=classic;html=1;rounded=0;entryX=0;entryY=0;entryDx=0;entryDy=0;exitX=0;exitY=0;exitDx=0;exitDy=0;" parent="1" source="mbGB87XxKhptI2jz_Z91-40" target="mbGB87XxKhptI2jz_Z91-40" edge="1">
          <mxGeometry width="50" height="50" relative="1" as="geometry">
            <mxPoint x="860" y="250" as="sourcePoint" />
            <mxPoint x="910" y="200" as="targetPoint" />
          </mxGeometry>
        </mxCell>
        <mxCell id="mbGB87XxKhptI2jz_Z91-63" value="" style="endArrow=classic;html=1;rounded=0;entryX=0.983;entryY=0.304;entryDx=0;entryDy=0;entryPerimeter=0;" parent="1" target="mbGB87XxKhptI2jz_Z91-41" edge="1">
          <mxGeometry width="50" height="50" relative="1" as="geometry">
            <mxPoint x="960" y="280" as="sourcePoint" />
            <mxPoint x="860" y="372" as="targetPoint" />
            <Array as="points">
              <mxPoint x="910" y="330" />
            </Array>
          </mxGeometry>
        </mxCell>
      </root>
    </mxGraphModel>
  </diagram>
  <diagram id="1XJqC7TriG5lPpYlCfjr" name="App Initalization">
    <mxGraphModel dx="1050" dy="621" grid="1" gridSize="10" guides="1" tooltips="1" connect="1" arrows="1" fold="1" page="1" pageScale="1" pageWidth="850" pageHeight="1100" math="0" shadow="0">
      <root>
        <mxCell id="0" />
        <mxCell id="1" parent="0" />
        <mxCell id="8PlarSBi-fS2vbpyGuqK-1" value="Config Template Engine" style="points=[[0.25,0,0],[0.5,0,0],[0.75,0,0],[1,0.25,0],[1,0.5,0],[1,0.75,0],[0.75,1,0],[0.5,1,0],[0.25,1,0],[0,0.75,0],[0,0.5,0],[0,0.25,0]];shape=mxgraph.bpmn.task;whiteSpace=wrap;rectStyle=rounded;size=10;html=1;container=1;expand=0;collapsible=0;taskMarker=abstract;fillColor=#dae8fc;strokeColor=#6c8ebf;fontStyle=1" parent="1" vertex="1">
          <mxGeometry x="400" y="200" width="120" height="50" as="geometry" />
        </mxCell>
        <object placeholders="1" c4Name="Application Initialization" c4Type="SystemScopeBoundary" c4Application="Software System" label="&lt;font style=&quot;font-size: 16px&quot;&gt;&lt;b&gt;&lt;div style=&quot;text-align: left&quot;&gt;%c4Name%&lt;/div&gt;&lt;/b&gt;&lt;/font&gt;&lt;div style=&quot;text-align: left&quot;&gt;[%c4Application%]&lt;/div&gt;" id="8PlarSBi-fS2vbpyGuqK-2">
          <mxCell style="rounded=0;fontSize=11;whiteSpace=wrap;html=1;dashed=1;arcSize=20;fillColor=none;strokeColor=#666666;fontColor=#333333;labelBackgroundColor=none;align=left;verticalAlign=bottom;labelBorderColor=none;spacingTop=0;spacing=10;dashPattern=8 4;metaEdit=1;rotatable=0;perimeter=rectanglePerimeter;noLabel=0;labelPadding=0;allowArrows=0;connectable=0;expand=0;recursiveResize=0;editable=1;pointerEvents=0;absoluteArcSize=1;points=[[0.25,0,0],[0.5,0,0],[0.75,0,0],[1,0.25,0],[1,0.5,0],[1,0.75,0],[0.75,1,0],[0.5,1,0],[0.25,1,0],[0,0.75,0],[0,0.5,0],[0,0.25,0]];strokeWidth=0.4;" parent="1" vertex="1">
            <mxGeometry x="320" y="100" width="510" height="930" as="geometry" />
          </mxCell>
        </object>
        <mxCell id="8PlarSBi-fS2vbpyGuqK-4" value="Connect to Database" style="points=[[0.25,0,0],[0.5,0,0],[0.75,0,0],[1,0.25,0],[1,0.5,0],[1,0.75,0],[0.75,1,0],[0.5,1,0],[0.25,1,0],[0,0.75,0],[0,0.5,0],[0,0.25,0]];shape=mxgraph.bpmn.task;whiteSpace=wrap;rectStyle=rounded;size=10;html=1;container=1;expand=0;collapsible=0;taskMarker=abstract;fillColor=#dae8fc;strokeColor=#6c8ebf;fontStyle=1" parent="1" vertex="1">
          <mxGeometry x="400" y="360" width="120" height="50" as="geometry" />
        </mxCell>
        <mxCell id="8PlarSBi-fS2vbpyGuqK-5" value="Seed database" style="points=[[0.25,0,0],[0.5,0,0],[0.75,0,0],[1,0.25,0],[1,0.5,0],[1,0.75,0],[0.75,1,0],[0.5,1,0],[0.25,1,0],[0,0.75,0],[0,0.5,0],[0,0.25,0]];shape=mxgraph.bpmn.task;whiteSpace=wrap;rectStyle=rounded;size=10;html=1;container=1;expand=0;collapsible=0;taskMarker=abstract;fillColor=#dae8fc;strokeColor=#6c8ebf;fontStyle=1" parent="1" vertex="1">
          <mxGeometry x="400" y="440" width="120" height="50" as="geometry" />
        </mxCell>
        <mxCell id="8PlarSBi-fS2vbpyGuqK-6" value="Config Static Files" style="points=[[0.25,0,0],[0.5,0,0],[0.75,0,0],[1,0.25,0],[1,0.5,0],[1,0.75,0],[0.75,1,0],[0.5,1,0],[0.25,1,0],[0,0.75,0],[0,0.5,0],[0,0.25,0]];shape=mxgraph.bpmn.task;whiteSpace=wrap;rectStyle=rounded;size=10;html=1;container=1;expand=0;collapsible=0;taskMarker=abstract;fillColor=#dae8fc;strokeColor=#6c8ebf;fontStyle=1" parent="1" vertex="1">
          <mxGeometry x="400" y="280" width="120" height="50" as="geometry" />
        </mxCell>
        <mxCell id="8PlarSBi-fS2vbpyGuqK-7" value="Init Middlewares" style="points=[[0.25,0,0],[0.5,0,0],[0.75,0,0],[1,0.25,0],[1,0.5,0],[1,0.75,0],[0.75,1,0],[0.5,1,0],[0.25,1,0],[0,0.75,0],[0,0.5,0],[0,0.25,0]];shape=mxgraph.bpmn.task;whiteSpace=wrap;rectStyle=rounded;size=10;html=1;container=1;expand=0;collapsible=0;taskMarker=abstract;fillColor=#dae8fc;strokeColor=#6c8ebf;fontStyle=1" parent="1" vertex="1">
          <mxGeometry x="400" y="520" width="120" height="50" as="geometry" />
        </mxCell>
        <mxCell id="8PlarSBi-fS2vbpyGuqK-8" value="Register Routes" style="points=[[0.25,0,0],[0.5,0,0],[0.75,0,0],[1,0.25,0],[1,0.5,0],[1,0.75,0],[0.75,1,0],[0.5,1,0],[0.25,1,0],[0,0.75,0],[0,0.5,0],[0,0.25,0]];shape=mxgraph.bpmn.task;whiteSpace=wrap;rectStyle=rounded;size=10;html=1;container=1;expand=0;collapsible=0;taskMarker=abstract;fillColor=#dae8fc;strokeColor=#6c8ebf;fontStyle=1" parent="1" vertex="1">
          <mxGeometry x="400" y="600" width="120" height="50" as="geometry" />
        </mxCell>
        <mxCell id="8PlarSBi-fS2vbpyGuqK-9" style="edgeStyle=orthogonalEdgeStyle;rounded=0;orthogonalLoop=1;jettySize=auto;html=1;entryX=0.5;entryY=0;entryDx=0;entryDy=0;entryPerimeter=0;fontStyle=1;strokeWidth=2;" parent="1" source="8PlarSBi-fS2vbpyGuqK-1" target="8PlarSBi-fS2vbpyGuqK-6" edge="1">
          <mxGeometry relative="1" as="geometry" />
        </mxCell>
        <mxCell id="8PlarSBi-fS2vbpyGuqK-10" style="edgeStyle=orthogonalEdgeStyle;rounded=0;orthogonalLoop=1;jettySize=auto;html=1;exitX=0.5;exitY=1;exitDx=0;exitDy=0;exitPerimeter=0;entryX=0.5;entryY=0;entryDx=0;entryDy=0;entryPerimeter=0;fontStyle=1;strokeWidth=2;" parent="1" source="8PlarSBi-fS2vbpyGuqK-6" target="8PlarSBi-fS2vbpyGuqK-4" edge="1">
          <mxGeometry relative="1" as="geometry" />
        </mxCell>
        <mxCell id="pINGzG43xD5MGi6aJjmZ-9" style="edgeStyle=orthogonalEdgeStyle;rounded=0;orthogonalLoop=1;jettySize=auto;html=1;exitX=0.5;exitY=1;exitDx=0;exitDy=0;exitPerimeter=0;strokeWidth=2;" parent="1" source="8PlarSBi-fS2vbpyGuqK-12" edge="1">
          <mxGeometry relative="1" as="geometry">
            <mxPoint x="460" y="770" as="targetPoint" />
          </mxGeometry>
        </mxCell>
        <mxCell id="8PlarSBi-fS2vbpyGuqK-12" value="Start App" style="points=[[0.25,0,0],[0.5,0,0],[0.75,0,0],[1,0.25,0],[1,0.5,0],[1,0.75,0],[0.75,1,0],[0.5,1,0],[0.25,1,0],[0,0.75,0],[0,0.5,0],[0,0.25,0]];shape=mxgraph.bpmn.task;whiteSpace=wrap;rectStyle=rounded;size=10;html=1;container=1;expand=0;collapsible=0;taskMarker=abstract;fillColor=#dae8fc;strokeColor=#6c8ebf;fontStyle=1" parent="1" vertex="1">
          <mxGeometry x="400" y="680" width="120" height="50" as="geometry" />
        </mxCell>
        <mxCell id="8PlarSBi-fS2vbpyGuqK-13" style="edgeStyle=orthogonalEdgeStyle;rounded=0;orthogonalLoop=1;jettySize=auto;html=1;exitX=0.5;exitY=1;exitDx=0;exitDy=0;exitPerimeter=0;entryX=0.5;entryY=0;entryDx=0;entryDy=0;entryPerimeter=0;fontStyle=1;strokeWidth=2;" parent="1" source="8PlarSBi-fS2vbpyGuqK-4" target="8PlarSBi-fS2vbpyGuqK-5" edge="1">
          <mxGeometry relative="1" as="geometry" />
        </mxCell>
        <mxCell id="8PlarSBi-fS2vbpyGuqK-16" style="edgeStyle=orthogonalEdgeStyle;rounded=0;orthogonalLoop=1;jettySize=auto;html=1;entryX=0.5;entryY=0;entryDx=0;entryDy=0;entryPerimeter=0;fontStyle=1;strokeWidth=2;" parent="1" source="8PlarSBi-fS2vbpyGuqK-5" target="8PlarSBi-fS2vbpyGuqK-7" edge="1">
          <mxGeometry relative="1" as="geometry" />
        </mxCell>
        <mxCell id="8PlarSBi-fS2vbpyGuqK-17" style="edgeStyle=orthogonalEdgeStyle;rounded=0;orthogonalLoop=1;jettySize=auto;html=1;entryX=0.5;entryY=0;entryDx=0;entryDy=0;entryPerimeter=0;fontStyle=1;strokeWidth=2;" parent="1" source="8PlarSBi-fS2vbpyGuqK-7" target="8PlarSBi-fS2vbpyGuqK-8" edge="1">
          <mxGeometry relative="1" as="geometry" />
        </mxCell>
        <mxCell id="8PlarSBi-fS2vbpyGuqK-20" value="" style="points=[[0.145,0.145,0],[0.5,0,0],[0.855,0.145,0],[1,0.5,0],[0.855,0.855,0],[0.5,1,0],[0.145,0.855,0],[0,0.5,0]];shape=mxgraph.bpmn.event;html=1;verticalLabelPosition=bottom;labelBackgroundColor=#ffffff;verticalAlign=top;align=center;perimeter=ellipsePerimeter;outlineConnect=0;aspect=fixed;outline=end;symbol=terminate;" parent="1" vertex="1">
          <mxGeometry x="440" y="940" width="40" height="40" as="geometry" />
        </mxCell>
        <mxCell id="8PlarSBi-fS2vbpyGuqK-21" value="" style="points=[[0.145,0.145,0],[0.5,0,0],[0.855,0.145,0],[1,0.5,0],[0.855,0.855,0],[0.5,1,0],[0.145,0.855,0],[0,0.5,0]];shape=mxgraph.bpmn.event;html=1;verticalLabelPosition=bottom;labelBackgroundColor=#ffffff;verticalAlign=top;align=center;perimeter=ellipsePerimeter;outlineConnect=0;aspect=fixed;outline=standard;symbol=general;fillColor=#d5e8d4;strokeColor=#82b366;strokeWidth=2;" parent="1" vertex="1">
          <mxGeometry x="440" y="120" width="40" height="40" as="geometry" />
        </mxCell>
        <mxCell id="pINGzG43xD5MGi6aJjmZ-1" style="edgeStyle=orthogonalEdgeStyle;rounded=0;orthogonalLoop=1;jettySize=auto;html=1;exitX=0.5;exitY=1;exitDx=0;exitDy=0;exitPerimeter=0;entryX=0.5;entryY=0;entryDx=0;entryDy=0;entryPerimeter=0;strokeWidth=2;" parent="1" source="8PlarSBi-fS2vbpyGuqK-21" target="8PlarSBi-fS2vbpyGuqK-1" edge="1">
          <mxGeometry relative="1" as="geometry" />
        </mxCell>
        <mxCell id="pINGzG43xD5MGi6aJjmZ-5" style="edgeStyle=orthogonalEdgeStyle;rounded=0;orthogonalLoop=1;jettySize=auto;html=1;exitX=0.5;exitY=1;exitDx=0;exitDy=0;exitPerimeter=0;entryX=0.5;entryY=0;entryDx=0;entryDy=0;entryPerimeter=0;strokeWidth=2;" parent="1" source="8PlarSBi-fS2vbpyGuqK-8" target="8PlarSBi-fS2vbpyGuqK-12" edge="1">
          <mxGeometry relative="1" as="geometry" />
        </mxCell>
        <mxCell id="pINGzG43xD5MGi6aJjmZ-7" value="" style="points=[[0.25,0.25,0],[0.5,0,0],[0.75,0.25,0],[1,0.5,0],[0.75,0.75,0],[0.5,1,0],[0.25,0.75,0],[0,0.5,0]];shape=mxgraph.bpmn.gateway2;html=1;verticalLabelPosition=bottom;labelBackgroundColor=#ffffff;verticalAlign=top;align=center;perimeter=rhombusPerimeter;outlineConnect=0;outline=none;symbol=none;fillColor=#f8cecc;strokeColor=#b85450;" parent="1" vertex="1">
          <mxGeometry x="432.5" y="770" width="55" height="50" as="geometry" />
        </mxCell>
        <mxCell id="pINGzG43xD5MGi6aJjmZ-10" value="Log&amp;nbsp;&lt;span style=&quot;background-color: initial;&quot;&gt;/ Panic Error&lt;/span&gt;" style="points=[[0.25,0,0],[0.5,0,0],[0.75,0,0],[1,0.25,0],[1,0.5,0],[1,0.75,0],[0.75,1,0],[0.5,1,0],[0.25,1,0],[0,0.75,0],[0,0.5,0],[0,0.25,0]];shape=mxgraph.bpmn.task;whiteSpace=wrap;rectStyle=rounded;size=10;html=1;container=1;expand=0;collapsible=0;taskMarker=abstract;fillColor=#dae8fc;strokeColor=#6c8ebf;fontStyle=1" parent="1" vertex="1">
          <mxGeometry x="400" y="860" width="120" height="50" as="geometry" />
        </mxCell>
        <mxCell id="pINGzG43xD5MGi6aJjmZ-11" style="edgeStyle=orthogonalEdgeStyle;rounded=0;orthogonalLoop=1;jettySize=auto;html=1;exitX=0.5;exitY=1;exitDx=0;exitDy=0;exitPerimeter=0;entryX=0.5;entryY=0;entryDx=0;entryDy=0;entryPerimeter=0;strokeWidth=2;" parent="1" source="pINGzG43xD5MGi6aJjmZ-10" target="8PlarSBi-fS2vbpyGuqK-20" edge="1">
          <mxGeometry relative="1" as="geometry" />
        </mxCell>
        <mxCell id="pINGzG43xD5MGi6aJjmZ-13" style="edgeStyle=orthogonalEdgeStyle;rounded=0;orthogonalLoop=1;jettySize=auto;html=1;exitX=0.5;exitY=1;exitDx=0;exitDy=0;exitPerimeter=0;entryX=0.5;entryY=0;entryDx=0;entryDy=0;entryPerimeter=0;strokeWidth=2;" parent="1" source="pINGzG43xD5MGi6aJjmZ-7" target="pINGzG43xD5MGi6aJjmZ-10" edge="1">
          <mxGeometry relative="1" as="geometry" />
        </mxCell>
        <mxCell id="pINGzG43xD5MGi6aJjmZ-16" value="Yes" style="edgeLabel;html=1;align=center;verticalAlign=middle;resizable=0;points=[];fontStyle=1" parent="pINGzG43xD5MGi6aJjmZ-13" vertex="1" connectable="0">
          <mxGeometry x="-0.12" y="-1" relative="1" as="geometry">
            <mxPoint x="11" y="-3" as="offset" />
          </mxGeometry>
        </mxCell>
        <mxCell id="pINGzG43xD5MGi6aJjmZ-14" value="error?" style="text;html=1;align=center;verticalAlign=middle;whiteSpace=wrap;rounded=0;fontStyle=3" parent="1" vertex="1">
          <mxGeometry x="433" y="780" width="60" height="30" as="geometry" />
        </mxCell>
        <mxCell id="pINGzG43xD5MGi6aJjmZ-15" value="Serve HTTP requests" style="points=[[0.25,0,0],[0.5,0,0],[0.75,0,0],[1,0.25,0],[1,0.5,0],[1,0.75,0],[0.75,1,0],[0.5,1,0],[0.25,1,0],[0,0.75,0],[0,0.5,0],[0,0.25,0]];shape=mxgraph.bpmn.task;whiteSpace=wrap;rectStyle=rounded;size=10;html=1;container=1;expand=0;collapsible=0;taskMarker=abstract;fillColor=#dae8fc;strokeColor=#6c8ebf;fontStyle=1" parent="1" vertex="1">
          <mxGeometry x="550" y="772.5" width="120" height="45" as="geometry" />
        </mxCell>
        <mxCell id="pINGzG43xD5MGi6aJjmZ-17" style="edgeStyle=orthogonalEdgeStyle;rounded=0;orthogonalLoop=1;jettySize=auto;html=1;exitX=1;exitY=0.5;exitDx=0;exitDy=0;entryX=0;entryY=0.5;entryDx=0;entryDy=0;entryPerimeter=0;" parent="1" source="pINGzG43xD5MGi6aJjmZ-14" target="pINGzG43xD5MGi6aJjmZ-15" edge="1">
          <mxGeometry relative="1" as="geometry" />
        </mxCell>
        <mxCell id="pINGzG43xD5MGi6aJjmZ-18" value="No" style="edgeLabel;html=1;align=center;verticalAlign=middle;resizable=0;points=[];fontStyle=1" parent="pINGzG43xD5MGi6aJjmZ-17" vertex="1" connectable="0">
          <mxGeometry x="-0.0994" y="-5" relative="1" as="geometry">
            <mxPoint x="-9" as="offset" />
          </mxGeometry>
        </mxCell>
        <mxCell id="3u71kQvcl8n18uQrh2nV-2" value="&lt;font style=&quot;font-size: 10px;&quot;&gt;&lt;i style=&quot;font-size: 10px;&quot;&gt;- CSS&lt;br style=&quot;font-size: 10px;&quot;&gt;- JS&lt;br style=&quot;font-size: 10px;&quot;&gt;- Images&lt;/i&gt;&lt;/font&gt;" style="shape=note;strokeWidth=1;fontSize=10;size=20;whiteSpace=wrap;html=1;fillColor=#fff2cc;strokeColor=#d6b656;fontColor=#292900;fontStyle=1" parent="1" vertex="1">
          <mxGeometry x="640" y="260" width="80" height="50" as="geometry" />
        </mxCell>
        <mxCell id="3u71kQvcl8n18uQrh2nV-3" value="" style="endArrow=none;dashed=1;html=1;dashPattern=1 3;strokeWidth=1;rounded=0;exitX=1;exitY=0.5;exitDx=0;exitDy=0;exitPerimeter=0;entryX=0;entryY=0.5;entryDx=0;entryDy=0;entryPerimeter=0;" parent="1" source="8PlarSBi-fS2vbpyGuqK-6" target="3u71kQvcl8n18uQrh2nV-2" edge="1">
          <mxGeometry width="50" height="50" relative="1" as="geometry">
            <mxPoint x="550" y="360" as="sourcePoint" />
            <mxPoint x="600" y="310" as="targetPoint" />
          </mxGeometry>
        </mxCell>
        <mxCell id="3u71kQvcl8n18uQrh2nV-4" value="&lt;br&gt;&lt;div&gt;&lt;i&gt;- Log Requests&lt;/i&gt;&lt;/div&gt;&lt;div&gt;&lt;i&gt;- CORS&lt;br&gt;- Others&lt;/i&gt;&lt;/div&gt;" style="shape=note;strokeWidth=1;fontSize=10;size=20;whiteSpace=wrap;html=1;fillColor=#fff2cc;strokeColor=#d6b656;fontColor=#292900;fontStyle=1" parent="1" vertex="1">
          <mxGeometry x="640" y="500" width="120" height="50" as="geometry" />
        </mxCell>
        <mxCell id="3u71kQvcl8n18uQrh2nV-5" value="" style="endArrow=none;dashed=1;html=1;dashPattern=1 3;strokeWidth=1;rounded=0;exitX=1;exitY=0.5;exitDx=0;exitDy=0;exitPerimeter=0;entryX=0;entryY=0.5;entryDx=0;entryDy=0;entryPerimeter=0;" parent="1" target="3u71kQvcl8n18uQrh2nV-4" edge="1">
          <mxGeometry width="50" height="50" relative="1" as="geometry">
            <mxPoint x="520" y="555" as="sourcePoint" />
            <mxPoint x="600" y="545" as="targetPoint" />
          </mxGeometry>
        </mxCell>
        <mxCell id="3u71kQvcl8n18uQrh2nV-6" value="- Web routes&lt;div&gt;- API routes&lt;/div&gt;" style="shape=note;strokeWidth=1;fontSize=10;size=20;whiteSpace=wrap;html=1;fillColor=#fff2cc;strokeColor=#d6b656;fontColor=#292900;fontStyle=3" parent="1" vertex="1">
          <mxGeometry x="640" y="590" width="120" height="60" as="geometry" />
        </mxCell>
        <mxCell id="3u71kQvcl8n18uQrh2nV-7" value="" style="endArrow=none;dashed=1;html=1;dashPattern=1 3;strokeWidth=1;rounded=0;entryX=0;entryY=0.5;entryDx=0;entryDy=0;entryPerimeter=0;" parent="1" edge="1">
          <mxGeometry width="50" height="50" relative="1" as="geometry">
            <mxPoint x="510" y="640" as="sourcePoint" />
            <mxPoint x="630" y="625" as="targetPoint" />
          </mxGeometry>
        </mxCell>
        <mxCell id="3u71kQvcl8n18uQrh2nV-8" value="&lt;i&gt;-&amp;nbsp; Database Scripts&lt;/i&gt;&lt;div&gt;&lt;i&gt;- Default users&lt;/i&gt;&lt;/div&gt;" style="shape=note;strokeWidth=1;fontSize=10;size=20;whiteSpace=wrap;html=1;fillColor=#fff2cc;strokeColor=#d6b656;fontColor=#292900;fontStyle=1" parent="1" vertex="1">
          <mxGeometry x="640" y="400" width="130" height="50" as="geometry" />
        </mxCell>
        <mxCell id="3u71kQvcl8n18uQrh2nV-9" value="" style="endArrow=none;dashed=1;html=1;dashPattern=1 3;strokeWidth=1;rounded=0;exitX=1;exitY=0.5;exitDx=0;exitDy=0;exitPerimeter=0;entryX=0;entryY=0.5;entryDx=0;entryDy=0;entryPerimeter=0;" parent="1" target="3u71kQvcl8n18uQrh2nV-8" edge="1">
          <mxGeometry width="50" height="50" relative="1" as="geometry">
            <mxPoint x="520" y="480" as="sourcePoint" />
            <mxPoint x="630" y="460" as="targetPoint" />
          </mxGeometry>
        </mxCell>
        <mxCell id="3u71kQvcl8n18uQrh2nV-16" value="" style="endArrow=classic;html=1;rounded=0;fillColor=#d5e8d4;strokeColor=#82b366;exitX=0.5;exitY=0;exitDx=0;exitDy=0;exitPerimeter=0;" parent="1" source="pINGzG43xD5MGi6aJjmZ-15" edge="1">
          <mxGeometry width="50" height="50" relative="1" as="geometry">
            <mxPoint x="610" y="770" as="sourcePoint" />
            <mxPoint x="460" y="740" as="targetPoint" />
            <Array as="points">
              <mxPoint x="610" y="740" />
            </Array>
          </mxGeometry>
        </mxCell>
      </root>
    </mxGraphModel>
  </diagram>
</mxfile>
